<?xml version="1.0" encoding="UTF-8"?>
<svg enable-background="new 0 0 162.72 225.6" viewBox="0 0 162.72 225.6" xmlns="http://www.w3.org/2000/svg">
 <path d="m92.64,5.28c-3.19.758-5.691-1.681-8.64-1.92-21.088-1.706-34.099,13.452-34.08,32.64-4.379-20.678 20.471-40.994 42.72-30.72z" fill-rule="evenodd"/>
 <path d="m81.6,4.8c-.666,1.095-3.341.179-4.8.48-.194-.882 3.099-.81 4.8-.48z" fill-rule="evenodd"/>
 <path d="m85.44,5.76c-.081-1.041 1.702-.217 2.4-.48 .08,1.041-1.703.218-2.4.48z" fill-rule="evenodd"/>
 <path d="m52.8 24.96c1.241-1.652 1.159 2.469 0 0z" fill-rule="evenodd"/>
 <path d="m79.2,25.44c.116,8.472.138,8.16-.48,15.36-.975-2.329-2.247-13.201.48-15.36z" fill="#fff" fill-rule="evenodd"/>
 <path d="m81.12,25.44c.976.35 1.959,1.444.96,2.4-.713-.406-.695-1.546-.96-2.4z" fill="#fff" fill-rule="evenodd"/>
 <path d="m81.6,39.36c-1.793-3.884-.024-8.476-1.44-13.44 2.312,2.648 1.139,8.781 1.44,13.44z" fill="#fff" fill-rule="evenodd"/>
 <path d="m86.88 25.92c3.016 1.784 4.367 5.232 4.319 10.08-1.668-3.131-2.177-7.422-4.319-10.08z" fill="#fff" fill-rule="evenodd"/>
 <path d="m67.68,28.32c.467,2.238-2.561,5.112-2.4,8.64-1.604-3.374 1.13-6.543 2.4-8.64z" fill="#fff" fill-rule="evenodd"/>
 <path d="m74.88,28.8c.783-.083.969,3.141-.48,2.4-.397-1.357.677-1.243.48-2.4z" fill-rule="evenodd"/>
 <path d="m55.2,32.64c.183-.914.61.306.48.96-.183.914-.611-.307-.48-.96z" fill="#fff" fill-rule="evenodd"/>
 <path d="m68.64,54.72c-4.082,2.137-5.607-5.233-9.12-6.72-.416-2.879-3.606-5.224-2.88-7.68 2.449,4.111 5.376,7.744 8.64,11.04 1.469.771 3.324,1.156 3.36,3.36z" fill="#fff" fill-rule="evenodd"/>
 <path d="m83.52,41.76c-.059,1.222-.698,1.862-1.92,1.92 .717-.563.566-1.994 1.92-1.92z" fill="#fff" fill-rule="evenodd"/>
 <path d="m84.96,41.76h.96v.96h-.96v-.96z" fill="#fff" fill-rule="evenodd"/>
 <path d="m92.16,42.72c.03-.034-.033-.474 0-.48 2.305-.407-2.28,3.085 0,.48z" fill="#fff" fill-rule="evenodd"/>
 <path d="m78.72,50.4c.312-1.354.557,1.106.48,1.44-.222.964-.902.388-.48-1.44z" fill-rule="evenodd"/>
 <path d="m92.64,57.12c1.195.195.028,1.861-.96,1.44-.264-1.064.916-.684.96-1.44z" fill="#fff" fill-rule="evenodd"/>
 <path d="m83.52,60.48c-2.429.657-4.351.866-5.76.48 .729.2 2.98-1.351 5.76-.48z" fill-rule="evenodd"/>
 <path d="m74.4,81.6c-2.403-.411-2.651-1.117-5.28-.48 .515-1.725 5.053-1.069 5.28.48z" fill-rule="evenodd"/>
 <path d="m65.28,82.08c.316-1.438 1.026.459 1.92,0-.072,1.194-1.625.14-1.92,0z" fill-rule="evenodd"/>
 <path d="m75.84,82.08c-3.437,1.434-5.51-.536 0,0z" fill-rule="evenodd"/>
 <path d="m71.04,82.56c-2.542,1.47-4.611-.598 0,0z" fill-rule="evenodd"/>
 <path d="m67.2,83.04c-1.054,1.466-3.075-.554 0,0z" fill-rule="evenodd"/>
 <path d="m105.6,85.92c.447.512 1.771.149 1.439,1.44-1.046.087-1.526-.393-1.439-1.44z" fill-rule="evenodd"/>
 <path d="m116.64,86.88c1.393.086 1.157,2.281-.48,1.92-.061-.861.588-1.012.48-1.92z" fill-rule="evenodd"/>
 <path d="m77.76,91.68c2.617-1.482 5.931.458 9.12,0-1.38,1.592-3.713.318-5.76,0-1.791-.51-.76,1.8-2.4,1.44 .021-.821-.357-1.243-.96-1.44z" fill-rule="evenodd"/>
 <path d="m74.4,91.68c-1.87.85-4.298,1.141-6.72,1.44 1.64-1.08 3.9-1.54 6.72-1.44z" fill-rule="evenodd"/>
 <path d="m84.48,93.12c.854.352.069.873 0,1.44-.855-.352-.069-.873 0-1.44z" fill-rule="evenodd"/>
 <path d="m79.68,95.04h1.44c-1.031,4.409-.225,10.655-.48,15.84 3.013-2.61-1.349-13.475 2.399-15.84 .134,3.399-.094,10.416 0,15.36 .21.59.614.986 1.44.96-2.068.458-7.04-.312-10.56,0 1.065-.695 1.27-2.25 1.44-3.84 1.764.59-1.163,2.89.48,3.36 2.879.341.796-3.864 0-4.32 1.418-3.28-1.562-8.165-.48-11.04 1.671.278 1.053,2.881 1.44,4.32 .631,2.348 1.13,8.079 2.4,11.04 .448-4.577.376-8.39.481-15.84z" fill-rule="evenodd"/>
 <path d="m74.4,95.52c-1.054,1.466-3.074-.554 0,0z" fill-rule="evenodd"/>
 <path d="m111.36,101.28c2.08.2-.506,2.786 0,0z" fill-rule="evenodd"/>
 <path d="m104.64,101.76c.386.254.779.501 1.439.48-2.719,4.641-5.632,9.088-8.159,13.92-.98-.46-1.899-.98-2.881-1.44 .316-1.438 1.026.459 1.921,0 2.737-4.143 5.172-8.588 7.68-12.96z" fill-rule="evenodd"/>
 <path d="m120.96,105.6c-.062-.861.587-1.013.479-1.92 1.394.087 1.158,2.281-.479,1.92z" fill="#fff" fill-rule="evenodd"/>
 <path d="m144.48,117.12c.816-.177.905.374.96.96-.408-.088-.453.188-.479.479-.564-.077-.406-.874-.481-1.439z" fill-rule="evenodd"/>
 <path d="m142.56,119.04c-.854-.352-.069-.873 0-1.44 .855.352.069.873 0,1.44z" fill="#fff" fill-rule="evenodd"/>
 <path d="m80.16,123.84c1.826-.705.094,2.146 1.92,1.44-.558,1.283-2.547.043-1.92-1.44z" fill-rule="evenodd"/>
 <path d="m75.36,125.76c.591.21.986.614.96,1.44-.591-.21-.986-.614-.96-1.44z" fill-rule="evenodd"/>
 <path d="m83.52,126.24c-.21.59-.614.985-1.44.96 .21-.591.614-.986 1.44-.96z" fill-rule="evenodd"/>
 <path d="m140.16,126.24c.855.352.069.872 0,1.439-.855-.351-.07-.871 0-1.439z" fill="#fff" fill-rule="evenodd"/>
 <path d="m43.2,128.16c1.217-.872 3.057,1.725 3.84,2.88-2.022-.218-2.21-2.27-3.84-2.88z" fill-rule="evenodd"/>
 <path d="m74.4,129.6c-.427-.372-1.084-.516-1.92-.479 .086-1.393 2.281-1.158 1.92.479z" fill-rule="evenodd"/>
 <path d="m78.72 128.64c2.11-1.761 1.824 1.328 0 0z" fill-rule="evenodd"/>
 <path d="m144.96,128.16c.854.352.068.873 0,1.439-.855-.351-.069-.871 0-1.439z" fill="#fff" fill-rule="evenodd"/>
 <path d="m83.52 129.12c-1.132 1.544-1.94-1.688 0 0z" fill-rule="evenodd"/>
 <path d="m154.56 130.08c1.372 1.946-1.568 3.123 0 0z" fill="#fff" fill-rule="evenodd"/>
 <path d="m142.56,130.56c.854.353.069.873 0,1.44-.854-.352-.069-.873 0-1.44z" fill="#fff" fill-rule="evenodd"/>
 <path d="m150.72,134.4c1.023,1.487-.151,1.835 0,3.84-.991-.413-.507-3.341 0-3.84z" fill-rule="evenodd"/>
 <path d="m13.44,135.84c.183-.913.611.307.48.96-.183.914-.611-.307-.48-.96z" fill-rule="evenodd"/>
 <path d="m154.56,136.32c.183-.914.61.306.479.96-.182.913-.61-.306-.479-.96z" fill="#fff" fill-rule="evenodd"/>
 <path d="m19.2,139.2c.312-1.354.557,1.105.48,1.439-.222.965-.902.388-.48-1.439z" fill-rule="evenodd"/>
 <path d="m151.2,138.72c.82,2.595.132,6.328 0,8.641-1.077-2.054-.392-6.461 0-8.641z" fill-rule="evenodd"/>
 <path d="m135.36,140.16c1.381,3.522.276,12.251-.479,17.76-.99-.29-3.335.774-2.88-.96 .003-2.213.862.797 1.92.48 .06-1.451 2.642-5.959-.96-5.28-1.29-1.497 1.466-10.054.479-11.04 1.38,1.379-1.462,8.698.48,10.56 2.776-1.544.877-7.763 1.44-11.52z" fill-rule="evenodd"/>
 <path d="m141.12,140.16c.312-1.354.558,1.105.48,1.439-.223.965-.901.388-.48-1.439z" fill="#fff" fill-rule="evenodd"/>
 <path d="m147.84,139.68c-.929.832.411,3.932-1.44,3.841 1.283-.478-.637-4.158 1.44-3.841z" fill="#fff" fill-rule="evenodd"/>
 <path d="m25.44,141.12c.662-1.528.475,1.696.48,2.4-.661,1.528-.475-1.696-.48-2.4z" fill-rule="evenodd"/>
 <path d="m131.04,141.6c.184-.913.611.307.48.96-.183.914-.61-.306-.48-.96z" fill-rule="evenodd"/>
 <path d="m153.6,141.6c.42,2.853.326,6.377.479,10.561-.98-1.302-1.425-7.542-.479-10.561z" fill="#fff" fill-rule="evenodd"/>
 <path d="m76.32,144.96c4.394-6.339 11.146,5.986 1.92,5.28-1.338-1.061-2.334-2.467-1.92-5.28zm4.8,0c-1.468.349-1.412-.828-2.88-.48-1.161,1.265-1.161,3.536 0,4.801 3.539.533 4.483-2.21 2.88-4.321z" fill="#fff" fill-rule="evenodd"/>
 <path d="m12,144c.825,1.319 1.035,5.368.48,8.64-1.111-1.929-.167-5.913-.48-8.64z" fill-rule="evenodd"/>
 <path d="m131.52,144c-1.25,1.765-4.78.944-7.68.96-2.8.015-5.838-.354-7.681.48 3.846.799 11.035.799 14.88,0 1.285,1.548.357,2.456.48,4.8-4.354-1.087-10.695-.185-15.84-.48v-5.76c3.047-.283 11.456-1.135 15.841,0zm-6.72,3.36c-2.642-.052-5.469.039-7.681,0-.585.054-1.136.144-.96.96h14.88c-.855-1.787-4.04-.918-6.239-.96z" fill-rule="evenodd"/>
 <path d="m10.56,144.479c.312-1.353.557,1.106.48,1.44-.223.965-.902.389-.48-1.44z" fill-rule="evenodd"/>
 <path d="m13.44,144.96c1.109.49.993,2.207.96,3.84-1.893.293-.565-2.635-.96-3.84z" fill-rule="evenodd"/>
 <path d="m24.96,144.96h.96v.96h-.96v-.96z" fill-rule="evenodd"/>
 <path d="m131.04,148.32h-14.88c-.176-.816.375-.906.96-.96 2.212.039 5.039-.052 7.681,0 2.198.042 5.383-.827 6.239.96z" fill="#fff" fill-rule="evenodd"/>
 <path d="m150.72,147.84c1.963.437.449,4.351 1.439,5.76-1.201-1.198-1.454-3.345-1.439-5.76z" fill-rule="evenodd"/>
 <path d="m43.68,149.28c-.31,1.294-2.428.488-3.84.479-3.621-.022-7.941.488-11.52.48-.562.077-.405.875-.48,1.439-1.06-.06-.204-2.036-.48-2.88 4.365.541 10.683-.516 14.4-.479 .744.008 1.772-.144 1.92.961z" fill-rule="evenodd"/>
 <path d="m10.56,149.28c.661-1.528.475,1.695.48,2.399-.662,1.529-.475-1.695-.48-2.399z" fill-rule="evenodd"/>
 <path d="m141.12,150.72c.662-1.527.476,1.696.48,2.4-.661,1.527-.475-1.696-.48-2.4z" fill="#fff" fill-rule="evenodd"/>
 <path d="m132.48,153.12c.312-1.354.558,1.105.48,1.439-.222.965-.902.388-.48-1.439z" fill-rule="evenodd"/>
 <path d="m23.52,154.08c.553-1.553.543,1.289.48,1.92-.553,1.553-.543-1.289-.48-1.92z" fill-rule="evenodd"/>
 <path d="m18.72,155.52c.183-.913.61.307.48.96-.183.914-.611-.306-.48-.96z" fill="#fff" fill-rule="evenodd"/>
 <path d="m145.92 155.04c1.348 1.531 1.647 4.111 2.399 6.24-1.612-1.266-1.994-3.764-2.399-6.24z" fill-rule="evenodd"/>
 <path d="m24,156.96c1.303-.344-.343,2.264.96,1.92-.814,1.681-1.233-.938-.96-1.92z" fill-rule="evenodd"/>
 <path d="m19.2,157.92c.78,1.14.932,2.908 1.44,4.32-1.617-.302-1.25-2.59-1.44-4.32z" fill="#fff" fill-rule="evenodd"/>
 <path d="m131.52 158.4c1.073 3.188-1.184 4.225-1.44 7.68-1.111-2.245 1.222-5.167 1.44-7.68z" fill-rule="evenodd"/>
 <path d="m133.44,159.36c1.96-.146.257,1.002.48,1.92-.652-.148-.398-1.202-.48-1.92z" fill-rule="evenodd"/>
 <path d="m109.92,166.56c1.392.528 3.246.595 3.359,2.4-1.391-.528-3.245-.594-3.359-2.4z" fill="#fff" fill-rule="evenodd"/>
 <path d="m147.36,169.44v-.961c1.024-.224.914.687.96,1.44-.389-.09-.479-.481-.96-.479z" fill-rule="evenodd"/>
 <path d="m142.08,169.92c.591.21.986.614.96,1.44-.59-.21-.986-.614-.96-1.44z" fill="#fff" fill-rule="evenodd"/>
 <path d="m133.92,172.8c.726-1.694.91.884.479.96-.282.05-.602-.674-.479-.96z" fill="#fff" fill-rule="evenodd"/>
 <path d="m127.2,173.76c.069-.185 1.016-.849 1.44-.479 .948.823-2.119,2.288-1.44.479z" fill-rule="evenodd"/>
 <path d="m133.92,174.24c-.421,1.499-1.306,2.535-1.92,3.84-1.535-1.295 1.333-1.863 0-3.36 .861.061 1.012-.587 1.92-.48z" fill="#fff" fill-rule="evenodd"/>
 <path d="m65.76,176.64c-.149.651-1.202.398-1.92.48 .134-1.113 1.282-1.103 1.92-.48z" fill-rule="evenodd"/>
 <path d="m93.12,177.12h.96v.96h-.96v-.96z" fill-rule="evenodd"/>
 <path d="m128.16,179.52c.855.353.069.873 0,1.44-.855-.352-.07-.873 0-1.44z" fill="#fff" fill-rule="evenodd"/>
 <path d="m34.08,185.76c-.441-.732-3.534-1.731-3.36-2.88 .459-3.038 5.263-.799 3.36,2.88z" fill="#fff" fill-rule="evenodd"/>
 <path d="m80.64,183.36h-.96v-.96h.96v.96z" fill-rule="evenodd"/>
 <path d="m63.36,182.88c.926.194.042,2.198 1.92,1.44-.315.644-1.026.894-1.92.96v-2.4z" fill-rule="evenodd"/>
 <path d="m125.76,186.72c-.764-1.107 1.064-3.717 2.88-3.84-.918,1.322-2.13,2.349-2.88,3.84z" fill="#fff" fill-rule="evenodd"/>
 <path d="m13.44,183.84c1.256-.369.608.878.96,1.44 2.319,3.706 5.76,6.884 7.68,11.04-2.084-1.091-3.833-3.642-5.28-5.761-1.463-2.141-3.267-4.669-3.36-6.719z" fill-rule="evenodd"/>
 <path d="m90.24,189.12c.472-1.472 1.281.552 1.92.479-.471,1.472-1.281-.55-1.92-.479z" fill-rule="evenodd"/>
 <path d="m129.12,192c.651.148.398,1.202.48,1.92-.775-.472-1.104-1.28-.48-1.92z" fill="#fff" fill-rule="evenodd"/>
 <path d="m84.96,192.479c.702.418 1.521.719 1.439,1.921-.701-.418-1.521-.718-1.439-1.921z" fill-rule="evenodd"/>
 <path d="m139.2,192.479c1.195.195.029,1.861-.96,1.44-.264-1.064.917-.683.96-1.44z" fill="#fff" fill-rule="evenodd"/>
 <path d="m78.24,193.44c.971-1.55 2.678.156 1.92,1.92-1.085-.195.253-2.813-1.92-1.92z" fill-rule="evenodd"/>
 <path d="m39.84,193.44c.703.417 1.521.718 1.44,1.92-.702-.418-1.521-.718-1.44-1.92z" fill="#fff" fill-rule="evenodd"/>
 <path d="m79.68,197.76c-1.92-.16-4.777.617-4.8-1.439 1.79.289 4.365-.206 4.8,1.439z" fill="#fff" fill-rule="evenodd"/>
 <path d="m48.96 197.28c1.241-1.653 1.16 2.469 0 0z" fill="#fff" fill-rule="evenodd"/>
 <path d="m52.32,198.24c-.35.976-1.444,1.96-2.4.96 .775-.551 1.52-1.885 2.4-.96z" fill="#fff" fill-rule="evenodd"/>
 <path d="m96,198.72c-1.517-1.414-4.644,1.558-5.28.96 .312-1.323 4.839-2.893 5.28-.96z" fill-rule="evenodd"/>
 <path d="m53.76,199.2c-.21.59-.614.985-1.44.96 .209-.591.614-.986 1.44-.96z" fill="#fff" fill-rule="evenodd"/>
 <path d="m67.68,199.68c1.391-.889 4.833.271 6.72.48 1.459.301 4.135-.614 4.8.479h-4.8c-1.947-.612-4.864-.255-6.72-.959z" fill-rule="evenodd"/>
 <path d="m100.32,201.6c1.444-.483.851,1.069.96,1.92-.844-.116-1.094-.826-.96-1.92z" fill="#fff" fill-rule="evenodd"/>
 <path d="m120,204c-2.202-.447.241-3.475 1.439-1.92 .144,1.262-1.861.378-1.439,1.92z" fill="#fff" fill-rule="evenodd"/>
 <path d="m98.4,202.08c1.495-.225 1.716,1.207.96,1.92-.645-.315-.894-1.026-.96-1.92z" fill="#fff" fill-rule="evenodd"/>
 <path d="m96.96,202.56c1.672.142-.041,1.299.96,1.44-.606,1.446-1.961-1.068-.96-1.44z" fill="#fff" fill-rule="evenodd"/>
 <path d="m51.84 204.48c1.947-1.372 3.123 1.569 0 0z" fill-rule="evenodd"/>
 <path d="m65.28,204.479c-.209.591-.614.986-1.44.961 .209-.59.614-.986 1.44-.961z" fill-rule="evenodd"/>
 <path d="m100.32,204.96c-.441.838-1.5,1.06-2.88.96 .592-.689 1.65-.909 2.88-.96z" fill="#fff" fill-rule="evenodd"/>
 <path d="m42.72,213.12c-.604-.119-.484-.954 0-.96-.013-.467-.588-.373-.96-.48 .434-1.606 1.073-.419 1.92,0-.17.631-.845.755-.96,1.44z" fill="#fff" fill-rule="evenodd"/>
 <path d="m47.04,213.12c-.119.521-.955.325-.96.96-1.289-.847-.958-1.402-2.88-.96 .666-2.092 2.48-.048 3.84,0z" fill="#fff" fill-rule="evenodd"/>
 <path d="m72.48,212.16c-.463.977-1.843,1.036-3.36.96 .726-.714 2.107-.773 3.36-.96z" fill="#fff" fill-rule="evenodd"/>
 <path d="m105.12,216c-1.221-.539-2.341-1.179-3.359-1.92 .693-.816 3.408.403 3.359,1.92z" fill="#fff" fill-rule="evenodd"/>
 <path d="m106.08,216.479c.072-1.193 1.626-.14 1.921,0-.073,1.195-1.626.141-1.921,0z" fill="#fff" fill-rule="evenodd"/>
 <path d="m94.56,216.96c1.117-1.394 2.586.901 4.32.48-1.24,1.517-3.007-.48-4.32-.48z" fill="#fff" fill-rule="evenodd"/>
 <path d="m106.56,216.96c-.072,1.194-1.625.141-1.92,0 .072-1.194 1.625-.141 1.92,0z" fill="#fff" fill-rule="evenodd"/>
 <path d="m103.2,216.96c.775-.135.826.454 1.44.48 .191.931-2.186.702-1.44-.48z" fill="#fff" fill-rule="evenodd"/>
 <path d="m89.76,218.4c.408-1.409 1.208.624 2.399,0-.122,1.123-2.108.277-2.399,0z" fill="#fff" fill-rule="evenodd"/>
 <path d="m103.2 218.4c-1.132 1.544-1.94-1.688 0 0z" fill="#fff" fill-rule="evenodd"/>
 <path d="m71.52,218.4c.455,1.734-1.891.669-2.88.96 .592-.688 1.651-.91 2.88-.96z" fill="#fff" fill-rule="evenodd"/>
 <path d="m62.4,218.88c-.116.845-.826,1.095-1.92.96 .116-.845.826-1.094 1.92-.96z" fill="#fff" fill-rule="evenodd"/>
 <path d="m64.8,219.36c-.132.988-1.788.451-1.92,1.439-1.418-.692.572-1.932 1.92-1.439z" fill="#fff" fill-rule="evenodd"/>
 <path d="m67.2,219.84c-.277,1.163-1.813,1.067-2.88,1.44 .407-1.033 1.182-1.698 2.88-1.44z" fill="#fff" fill-rule="evenodd"/>
 <path d="m91.2,220.8c-.315-1.317 3.282-1.409 3.36.48-1.127-.153-1.802-.759-3.36-.48z" fill="#fff" fill-rule="evenodd"/>
 <path d="m71.04,220.32c-.359.754-4.224,2.059-3.84.479 1.15-.289 2.19-.689 3.84-.479z" fill="#fff" fill-rule="evenodd"/>
 <path d="m70.08,222.24c-.206-1.326 1.79-.451 1.92-1.44 7.433-.246.855.906-1.92,1.44z" fill="#fff" fill-rule="evenodd"/>
 <path d="m91.68,221.28c-.123,1.123-2.109.276-2.4,0h-2.88c-.876-.373.288-.517.96-.48 1.502.098 3.523-.323 4.32.48z" fill="#fff" fill-rule="evenodd"/>
 <path d="m86.88,221.76c-2.539,1.564-8.369-.099-12.48.96 2.846-1.926 8.441-1.544 12.48-.96z" fill="#fff" fill-rule="evenodd"/>
 <path d="m55.68,21.6c1.896-1.482 4.249-6.181 7.2-8.16 1.228-.021.585.357.48.96 .386-.254.779-.5 1.44-.48-.312-.488-1.104-.496-.96-1.44 1.771.947 1.022-.758 2.4-1.92 2.688-2.267 8.211-3.576 12.48-3.84 5.84-.361 11.922,2.022 16.319,4.32-1.759-1.921-3.763-3.597-6.239-4.8 .753-.573 5.949.534 4.319,2.4 .387-.254.779-.501 1.44-.48 1.142-.142-.533-1.299-.96-1.44 1.92.002 4.098,1.494 5.76,2.88 4.608,3.84 9.597,10.51 10.561,17.76 2.002,15.069-6.389,25.72-16.32,30.72 1.313,5.794-7.024,10.624 0,13.44 1.553.553-1.289.543-1.92.48 4.748,2.739 8.489,3.428 13.439,3.84-1.469,2.019 2.069-.458.48,1.44 1.356.397 1.243-.676 2.4-.48-1.065,1.311 1.444,1.41 2.399.96-.091.389-.481.479-.479.96 1.682-.828 2.337,1.235 4.8.96 .576.63.187.755 0,1.44 2.479-.872.687,1.327 3.84.48 .673,1.805 3.885,2.02 5.28,3.36 .514.494-.127,1.347 0,1.44 .301.222.47-.505.96,0 .647.667 1.687.566 2.88,1.44 3.081,2.256 5.085,6.378 8.16,7.68-9.209-12.071-22.812-19.748-40.801-23.04 6.944-.344 12.973,2.523 18.721,5.28 8.904,4.272 17.51,10.153 24,17.28 8.931,9.808 16.367,24.314 19.2,40.8 5.081,29.573-10.331,52.961-25.921,68.16-.774.136-.826-.454-1.439-.48 .254.387.501.779.479,1.44-3.88,3.16-8.891,5.189-12.479,8.64-1.433-.688-1.632.393-2.88-.479 1.793-.505 2.959-.828 4.319-2.4-1.214-.487-3.123,1.818-5.279,1.92-.143,1.263 1.862.378 1.439,1.92-2.45.788-2.872-1.071-4.8-.479 .561,2.809 1.625-.366 2.88.96-.684,1.383-2.604.969-3.359,0-1.418.417 1.113.719.479,1.92-1.132-.148-.893-1.667-2.399-1.44-1.299.432 1.012,1.159 1.439,1.44-17.031,9.17-47.166,7.432-63.36-1.44 2.21-1.936 5.741,1.569 7.2,2.4 2.373-.83 1.618.98 3.84,0-1.536,2.265 2.254-1.066 1.44,1.92 .954-.006.61-1.31 1.92-.96-1.698-.862-3.821-1.299-5.76-1.92 .283-1.797 2.674-1.485 3.36-2.88-.487-.916-2.22.942-2.88,1.439-1.559-.979 1.621-1.214 1.44-2.399-1.538.223-1.692,1.827-3.36,1.92 .013.467.588.372.96.479-1.213,1.89-4.543-1.22-6.24-1.92-1.7-.26-1.18,1.7-2.88,1.44-8.505-5.415-17.508-10.332-23.04-18.72 2.021.858 3.175,2.585 4.32,4.319 1.31.044.966-.799 1.92,0-2.103.774.881,1.387 2.4,2.4-6.788-7.132-13.849-13.991-17.76-24-.986.134-.958,1.282-1.44,1.92 .635.625 1.491.757.96,2.4 .427-.213.858-.422.96-.96 .712.209-.189.614 0,1.439-.408-.088-.453.188-.48.48-6.401-10.395-10.736-22.861-10.558-39.84 .551-.575 1.217-.187.48,0-.447,8.073 2.01,15.457 2.88,21.601 2.297.714.54,4.371 2.4,5.76-.537,2.99 2.636,4.987 2.88,8.64 .648-.471.959-1.28 1.44-1.92-1.598.52.43-2.311-1.92-2.88-.596-2.711-1.237-6.209-2.88-7.68-.026-2.47-.923-7.532-2.4-10.08-.927-7.101-.232-20.141.48-26.88 2.463-4.65 2.162-9.587 4.32-13.44 .041-.072.877.666.96.48 .096-.217-.682-.877-.48-1.44 .219-.612 1.216-.575 1.44-.96 .188-.323.329-2.145.48-2.4 .567-.958 2.041-4.735 2.88-5.76 .086-.104.828.702.96.48 .158-.264-.177-1.544 0-1.92 .579-1.224 3.013-4.119 3.84-3.36-.668-1.853 2.655-5.761 4.32-5.28-.373-3.796 5.439-5.394 8.16-7.68-.091-.544-.481-.266-.48,0 .174-2.098 6.56-5.057 7.68-6.24 1.509-1.003 1.923.115 2.4-1.92 .682-.042 1.359-.08 1.44.48 1.104-1.976 4.953-3.072 5.76-3.36 1.701-.607 1.542-.696 2.88-.48 .712-.21-.189-.614 0-1.44 5.291-.092 4.95-1.692 12-2.4-1.791-1.605.09-.303 1.92-.48-.536-.59-.417-.986.48-.96-1.058-1.265-3.632-.356-5.28,0-3.808.824-8.12,3.026-11.52,3.84 4.54-2.82 10.52-4.2 16.8-5.28 1.171-1.068 2.308-2.172 2.4-4.32-.151-2.729-3.216-2.544-2.4-6.24 1.854.256 4.46,4.031 5.76.48 1.01.431 2.134.746 2.88,1.44 4.453-1.789 10.86-.774 15.84-.96 1.231-.049.771-1.789 1.44-2.4-1.127-1.169-1.074.536-1.92.96-3.312-.049-7.224.504-8.64-1.44 .903-.958 1.743-.758.959-2.4-.467.013-.372.587-.479.96 .3-4.224-.296-5.6-.48-10.08-.333-1.748-2.502-1.658-3.84-2.4-.89.853-2.173,3.633-2.4,5.28-.518,3.761 1.098,8.522-.96,10.08-1.586-.488.56-10.139-.96-10.56-.552-1.918-.288-3.235-1.92-4.8-4.345,3.904-.723,9.772-2.88,14.4-.081,1.041 1.703.217 2.4.48-4.95,1.967-12.05-3.885-15.84-8.64-3.419-4.29-5.362-10.402-6.24-14.88 1.699.852 1.24,3.531 1.92,5.28 .671,1.727 1.482,3.522 2.88,4.32 .328,1.432.582,2.938 1.92,3.36-.354-4.642-3.831-6.631-2.4-10.56-.078-.562-.875-.405-1.44-.48 2.059-1.922.618-5.139.96-7.68 .477-3.548 2.733-6.417 2.4-9.12zm81.6,173.76c-1.805,1.163-3.528,3.157-5.279,4.8-1.546,1.449-4.215,2.812-3.841,4.8 1.131-1.895 3.219-4.353 5.28-3.84 .239-2.961 3.076-3.324 3.84-5.76zm-18.24,14.4v.96c.482-.001.571.389.961.48-.797-3.113 2.97-.609 1.439-2.4 2.105-.02 3.082-1.806 5.28-2.88-1.694-.142 1.693-1.299 0-1.44-1.99,2.33-4.803,3.836-7.68,5.28zm-4.8,4.8c-.639-2.378-2.267-.749 0,0zm-6.24,1.919c-.295-.14-1.849-1.193-1.921,0 .296.141 1.849,1.195 1.921,0zm-3.36.481c.295.141 1.848,1.194 1.92,0-.295-.141-1.848-1.194-1.92,0zm-48.48-.481c.973-.184 3.345-1.403 2.4-1.92-.381,1.06-2.256.625-2.4,1.92zm-12.96-3.359c1.922-.442 1.591.113 2.88.96 .005-.635.841-.438.96-.96-1.36-.048-3.174-2.092-3.84,0zm.48-1.44c-.847-.419-1.486-1.606-1.92,0 .372.107.947.014.96.48-.484.006-.604.841 0,.96 .115-.685.79-.809.96-1.44zm-3.36-1.92c.666.295.072,1.848.96,1.92 .813-2.488-3.072-3.112-4.8-4.319-2.052-1.435-3.563-3.771-5.76-4.32 2.065,3.099 6.027,6.713 9.6,6.719zm93.6-111.84c-12.938-15.652-37.964-27.651-64.8-23.04-31.572,5.425-54.636,26.695-61.92,55.68-1.668,6.64-2.093,14.565-1.44,22.561 1.228,15.02 6.663,25.312 14.4,36.479-.001-.267.389-.545.48,0-.576,1.511 2.946,4.649 3.84,4.801v1.439c1.727.347 2.914,3.255 4.8,4.8 1.135.93 3.88,3.359 3.36.96-.053,1.176-1.587.103-1.44-.479 1.21-.325.85-1.596.48-1.92-.027.293-.072.568-.48.479-.964,1.673.212-.04.48.96-.482-.001-.571.389-.96.48-.617-1.467.608-1.505.48-3.36-.71-.25-1.21-.71-1.92-.96-.903.847.656,1.486-.96,1.92 1.16-1.535-.75-.905-.96-1.439 1.453-1.016-1.775-3.563-2.4-4.32 .309.374-.955-3.952-.96-.96 .115-.736.791-.07.96.479-.846-.903-1.486.656-1.92-.96 .274-.434 1.979-1.767.96-1.92-.75.771-2.13-2.432-2.88-1.92 1.093-.774.155-1.075.48-2.88-.484.956-.83,2.051-1.92,2.4 .936-1.219 2.123-3.281 0-1.44 .508-.727 2.815-3.842 1.44-3.359 .081,1.201-.737,1.502-1.44,1.92 1.28-2.346.574-1.206-.48-1.44 .711-.652 3.04-3.982 1.92-3.36-.481.64-.792,1.449-1.44,1.921 .731-2.783 1.272-2.242-.96-.961-.101-.955 2.035-2.05.96-2.399-.153.556-1.486,2.261-1.92.96 2.029.121 2.697-4.979 1.44-1.44-1.004.002-1.804,2.615-2.4,1.44 2.232-1.396.905-3.544 2.4-5.28-1.861.379-1.826,2.654-3.36,3.36 .355-1.426 2.737-3.315 1.92-4.32-.591.414-1.328,3.091-1.92,1.92 .961-.291 2.385-5.154 1.44-2.88-1.099.66-1.127,2.393-2.4,2.88 .641-2.248 3.357-4.95 2.88-6.72-.75,1.188-1.87,4.506-2.88,3.84 .773-1.323 2.847-3.851 1.92-5.28 .35.785-.954,2.089-.96.96 .11-.745 1.845-2.239.48-2.88-.202.918-.174,2.066-1.44,1.92 .326-1.141 2.172-3.23.96-4.319-.372,1.548-1.003,2.836-1.92,3.84 .857-2.343 1.822-4.578 2.4-7.2-1.86-.26-.415,2.785-1.92,2.88-.303-1.771 1.736-3.667.48-4.8-.233.567-.512,1.088-.96,1.44-.295-1.779 1.895-3.826 0-4.32-.066.894-.316,1.604-.96,1.92 1.063-1.497-.577-5.697 1.44-6.24 .298,8.914.603-2.216 1.44-3.84 .581,4.718-.54,7.389 0,10.56 .082-.718-.171-1.771.48-1.92 .582,3.039.744,7.406 2.88,10.08-1.159-3.943-1.164-8.066-1.92-12-.051-.265-.924-.954-.96-1.439-.222-2.995.689-7.572.96-10.561 1.472-16.216 10.697-30.625 20.16-38.88v-1.44c.481-.001.571.389.96.48 12.454-11.97 36.248-20.153 59.04-13.44 .197-.603.619-.981 1.44-.96-.026.614-.615.665-.48,1.44 1.882-.273 2.994,1.665 4.32.48-.104,2.404 4.641.501 3.359,2.4 .837.036 1.493-.107 1.921-.48-.195,2.185 6.059,3.115 5.76,4.32 .105-.374.401-.558.96-.48-1.015.534 2.91,3.695 2.399.96 .614.026.665.615 1.44.48-.928,1.434 1.517,5.177 3.36,3.84-1.145,1.199.573.958 1.439,1.92-.269-.298.43,2.601.96.96-.267.001-.545-.389 0-.48 .561,1.186 1.255,1.771 1.92.48 .24,1.51-1.046,1.876 0,2.88 1.51.55 1.167-.754 1.92-.96 .108.907-.541,1.059-.479,1.92 1.201-.06 1.502-.916 1.92.48-.539.049-.747-.698-.96,0 1.682.215.982,2.065 1.439,2.4 .102-.539.533-.747.96-.96 .623,1.19-1.07,2.33 0,2.4 .27-1.391.749.736 1.44.48-.025-.826.369-1.23.96-1.44-.094,2.244 1.035,2.801 1.44,4.32 .609-.025 1.926-1.608 2.88,0-.635.006-.439.842-.96.96-.075-.564.082-1.362-.48-1.44-.854.902-2.22,4.151 0,2.88-.56-.081-.521-.759-.479-1.44 1.407,1.133 1.782-.922 2.399,0-.458.7-2.179,2.57-1.439,2.88 .48-1.459.791-.612 1.439,0-.146-1.119-1.024-2.067.48-2.399 .065.894.315,1.604.96,1.92 .315-.996 2.752-2.325 1.439-3.36-.281.428-1.008,2.738-1.439,1.44 .988-.132.451-1.788 1.439-1.92 .539.102.748.533.96.96 .518,1.227-2.066,1.68-.479,2.399-.002-.267.389-.545.479,0-.899.846-1.02,2.006-1.92.48 .55,1.017-1.513,5.175-.96,4.32 .846-.435.793-1.768 1.92-1.921-.021.661.227,1.055.48,1.44 .299,1.304-2.171,2.248-.96,2.88 .741-1.019 1.381-2.139 1.92-3.36-1.456.177-.996-1.563-1.44-2.399 .954-.006.61-1.31 1.92-.96-.001.481.39.571.48.96-1.576,2.049-.455,1.325.48,1.439-.595,1.505-3.382,5.342-.48,4.801 .35-2.104-.954.387-.96-.96 .617-1.143 1.23-2.29 1.92-3.36 .608,1.464-1.642,2.444-.479,2.88 .141-.427 1.298-2.102 1.439-.96-.412,2.001-3.356,3.986-2.4,5.76 1.053-2.147 1.629-4.771 3.841-5.76-.428,2.145-3.606,4.059-2.4,6.24 .349-2.371 1.733-3.706 2.88-5.28 .386,1.698-2.09,2.986-.96,3.84 .281-.428 1.009-2.737 1.44-1.439-1.059,2.469-3.619,5.972-2.88,8.64 .962-2.878 1.688-5.991 3.84-7.68-.63,3.217-3.973,6.259-2.88,9.6 .634-3.343 1.768-6.042 3.359-7.68-1.275,4.167-4.192,9.243-3.359,13.92 .739-4.541 1.701-8.858 3.84-12-.182,3.186-2.995,6.274-1.92,9.12 .611-3.714 3.474-7.72 2.88-11.04-.107.372-.014.946-.48.96 .032-1.899.217-5.956-.96-3.84-.521-1.229 1.458-2.289 0-2.88-.054.585-.144,1.136-.96.96 .761-2.123 1.326-1.955-.479-2.4 2.21-.457-.743-1.978-.96-2.88-.057-.235.402-3.471-.96-1.44 .928-1.693-.226-2.146-.48-3.84-.826-.189-1.23.712-1.439,0-.77-5.636-5.608-11.355-10.08-14.884zm-106.08,96.96c-.292.027-.568.072-.48.48 .539.102.748.532.96.96-.266-.002-.545.389 0,.479 1.062-1.391-.604.736.48.48-.256-.691 1.871-1.172.48-1.44-1.064,1.529-1.213-2.486-1.44-.959zm114.72-77.28c-.069.567-.854,1.089 0,1.44 .069-.567.855-1.088 0-1.44zm3.36,33.12c-1.422,5.652 1.166,9.61 1.439,12.96-1.038-1.361-1.196-3.604-2.399-4.8 .517,4.123 3.048,6.232 4.319,9.6-1.697-.382-1.357-2.802-2.88-3.359 .248,2.272.606,1.913-.96.96 .621,3.028 3.995,5.036.48,7.2 .021-.661-.227-1.055-.48-1.44 .481-.001.571.389.96.48 .242-1.498-1.131-2.324.48-1.44-.006-1.755-.949-2.571-1.92-3.36-.411,1.12 1.678,2.068.479,2.4-1.029-.73-1.471-2.049-2.4-2.88 .105,1.814 1.51,2.331 1.921,3.84-1.576-.664-1.886-2.595-2.881-3.84-.732,1.595 1.872,3.408 2.4,5.28-2.191-.842-.962.155-.479,1.439-1.127-.153-1.075-1.485-1.921-1.92-.948,2.201-3.375,4.335-1.439,6.72-1.233-.046-.687-1.873-1.92-1.92-.299,1.305 2.171,2.248.96,2.88-3.492-3.566 2.426-6.556 2.399-11.04-2.359,1.48-2.115,5.564-4.319,7.2 1.36-4.079 3.348-7.531 4.8-11.52 .912.848 1.138,2.382 1.92,3.359 .922-2.702-2.874-3.178-1.44-4.8 1.073.239 1.139,3.938 2.4,2.4-.553-.156-1.652-2.094-.479-2.4-.135,1.095.115,1.805.96,1.92-.324-1.275-.756-2.444-1.44-3.359-.075.564.083,1.362-.479,1.439-2.706-1.064 1.941-6.302-.48-5.76 .578-1.501 1.779-2.381 1.44-4.8-2.236-.423.323,1.582-.96,1.439-2.293-1.562.661-1.377.96-2.399 1.108-3.805-1.183-8.736-.96-12-.006.484-.842.604-.961,0-.595-2.445-.009-6.07-1.92-7.2 2.031,8.329 2.928,20.19.96,28.8-5.417,23.709-27.844,45.069-51.84,48-4.302.525-9.196.848-13.92.48-23.02-1.791-39.627-13.658-50.88-30.721 .072.64-1.952,1.449-.48,1.92-.168.179 4.007,3.895 2.88,5.28 .924.7 2.865,1.052 3.36,2.88 .148.548.789.546 1.92,1.44 1.051.832 2.753,2.925 4.32,4.32 1.075.956 2.677,1.633 3.36,2.399 .412.462-.725.45 0,.96 .42.295 1.923-.031 2.4.48 1.069,1.146 2.566,2.827 4.32,3.84 2.862,1.653 2.788,1.341 4.32,1.439-1.008,1.887 2.382,2.95 3.84,1.44 .476.928 2.927.92 1.44,2.4 2.995-1.967 1.013,1.258 3.84,0 .001.481-.389.571-.48.96 4.559-.004 11.934,3.483 20.16,3.359 2.146-.032 5.105.215 7.68,0 .898-.074 1.721-1.229 2.88-1.439 2.443-.442 9.528-.089 8.641-1.92 .948,1.104 2.697.878 3.84,0-.539-.102-.747-.533-.96-.96 2.338,1.341 1.136-.44 1.439-.96 .64-.072 1.449,1.951 1.92.479-.538-.102-.747-.532-.96-.96 .711.25 1.21.71 1.92.96 .1-2.089 3.5-1.405 3.841-1.92-.539-.102-.748-.532-.96-.96 4.083-.807 9.645-4.354 12.96-8.64-.373-.107-.947-.014-.96-.48 1.248-.872 1.447.208 2.88-.479 4.737-5.343 9.289-10.871 12.96-17.28 .558,1.135.148,4.839.479,3.84 .066-.894.316-1.604.96-1.92-.021.661.227,1.054.48,1.439-1.666-1.038.148,1.989-2.4,1.921 .623-.639.633-1.786-.479-1.921-.312,1.752.323,2.557.96,3.36-1.429-1.438-1.993-1.174-2.88-.479 .675.125.547,1.053.96,1.439-.295-.141-1.848-1.193-1.92,0 1.699.054-1.021,1.587.479,1.44 .142-.448 1.299-.448 1.44,0-2.082.851-.396,1.256-2.4,1.439 .294,1.79.835,2.963-.96,1.44-.669.611-.209,2.352-1.44,2.399-.049-.538.698-.747 0-.96-.026.293-.071.568-.479.48 .002-.267-.389-.545-.48,0 .48.799-.179,1.3.96,1.439-1.325-.205-.45,1.79-1.439,1.921-.979-.269-.941-1.444-1.92-.48 .021.661-.227,1.054-.48,1.44 1.048-.088 1.527.393 1.44,1.439-1.828-2.239-3.823,2.184-5.76,2.88 .538.102.747.533.96.96-2.219-.529-1.77,2.082-2.4,2.88-1.688,2.137-4.181,2.751-5.76,3.36 .53.325 2.49,1.596 1.439,1.92-.658-1.102-1.977-1.543-2.88-2.399-.593,1.553 1.554.366.96,1.92-1.606-.89-.419.123 0,.96-1.31.35-.966-.954-1.92-.96-.189.825.713,1.23 0,1.439-.854-.277-.961.217-2.399,0 .53.325 2.489,1.596 1.439,1.92-.66-.497-2.393-2.356-2.88-1.439 .854.232-.208.512-.479.96 .846.434 1.485,1.073 1.92,1.92 10.925-4.558 20.456-12.396 27.359-20.641 2.729-3.259 4.321-7.157 6.24-10.56 2.352-4.17 3.444-7.816 5.28-12 .077-.176.895-.247.96-.479 .167-.595-.567-1.184-.48-1.44 .038-.111.903.11.96,0 2.015-3.854 1.409-11.111 1.44-13.44 .065.895.315,1.604.96,1.92-1.432-6.354-.948-14.023-.96-19.68-.115.521-.791,1.152-.96.48-.315-1.756 1.038-1.842.96-3.36-.691-1.062-1.171.604-1.44-.479-.271-1.276 1.975-2.444.48-3.36-4.869,8.719-3.736,23.338-.48,31.2-1.154-3.014-3.207-6.654-3.84-10.561-.335-2.072 1.086-4.699-.96-6.24-.235,7.593 2.89,14.209 4.32,19.681-1.816-3.818-4.144-10.005-4.801-13.434zm-90.24,51.84c.025-.897-.37-1.016-.96-.479-.263-.697.561-2.481-.48-2.4-.665.295-.072,1.848-.96,1.92-.756-.401-2.676-2.072-3.36-.96 7.881,3.727 17.292,8.189 28.32,7.2v-2.399c-2.531.162-6.863-2.076-7.68,0-3.395-2.903-9.912-2.545-12-3.36-.001-.481.389-.571.48-.96-1.18,1.33-3.77-1.98-3.36-.48 .778-.345.778,2.261 0,1.918zm-13.44-6.24c1.304-.299 2.248,2.171 2.88.96-.809-.196-2.157-2.261-2.88-.96zm-.96-.96c.082-1.202-.737-1.503-1.44-1.92-.081,1.202.738,1.502 1.44,1.92zm-18.24-15.36c.196-2.064 1.643-.638 2.4-1.44-1.979-4.415-4.324-8.569-6.24-13.439-1.054,3.993 4.809,11.025 3.84,14.879zm106.56,13.92c-.082-.718.171-1.771-.48-1.92-.624.64-.295,1.448.48,1.92zm-8.16,8.16c-1.198-1.555-3.642,1.473-1.439,1.92-.423-1.542 1.582-.658 1.439-1.92zm-3.84,2.88c2.591-.909.512-2.022 0,0zm-10.56,9.6c-1.393.235-2.761-1.987-3.359-.96 1.132.148.893,1.667 2.399,1.44 1.667-.573 3.729-.752 4.801-1.92-1.286-.314-1.825-1.375-2.88-1.92-.511,1.79 1.8.76 1.439,2.399-1.019-.74-2.139-1.381-3.36-1.92-.476,1.634 3.392,1.358 1.921,2.4-.909-.403-2.764-2.314-3.36-1.44 .879.561 1.624,1.256 2.399,1.921zm-5.28-.48c1.019.741 2.139,1.381 3.359,1.92 .05-1.517-2.665-2.736-3.359-1.92zm-1.92.48c.809.791 2.157,1.043 2.88,1.92-1.793.325-3.035-2.368-4.32-.96 .567.233 1.088.513 1.44.96-.842.133-2.396-1.351-2.88,0 2.332,1.129 5.185.979 7.199-.479-1.515-.108-2.934-2.794-4.319-1.441zm-64.32-127.2c2.977-1.714-.699-1.274 0,0zm29.76-36c-3.264-3.296-6.19-6.929-8.64-11.04-.727,2.456 2.464,4.801 2.88,7.68 3.513,1.487 5.039,8.857 9.12,6.72-.036-2.204-1.891-2.589-3.36-3.36zm37.92-10.56c-.001.267.389.545.48,0-.896-1.034 1.694-4.002-.48-5.28-.826,3.499-2.742,8.451-4.8,9.12 10.136-15.44-2.947-33.841-17.28-34.56-13.148-.659-26.023,10.352-24.96,24.48 .558,7.416 4.95,12.539 10.56,16.8v-6.72c-5.836-4.833-3.119-16.744 3.84-18.24-2.646,2.263-5.398,9.609-2.4,12.48-.829-3.538.065-8.242 1.92-10.56-1.17,2.537-2.497,8.294-.48,11.04 .502-1.737-1.089-5.569.96-5.76-.017,2.097-.177,4.337.96,5.28 .622-1.035-1.264-2.798.96-3.84 .018,1.743-.269,3.789.96,4.32 .377-2.503-.306-6.065 1.44-7.2-.749,1.611-.376,5.655.96,6.72-.1-5.523 2.475-8.85.96-13.44-.213,1.227-.673,2.207-1.44,2.88 .158-1.122.577-1.983.96-2.88-2.992-.112-3.638,2.122-4.8,3.84 .55-2.617 2.38-3.168-.48-3.36 7.546-2.685 19.416-2.184 24,4.32 3.471,4.924 1.636,11.299-2.399,15.84-.614-.026-.665-.615-1.44-.48 .293,1.147-.603,3.482.48,3.84 .051-1.229.271-2.288.96-2.88 .489,2.25-.79,2.73-1.44,3.84 3.531.164 4.812-4.458 6.721-4.32-1.57,3.87-6.901,3.979-7.2,9.12 6.516-1.951 9.832-8.025 12.478-14.4zm-37.92-3.84c-.16-3.528 2.868-6.402 2.4-8.64-1.27,2.097-4.004,5.266-2.4,8.64zm36-16.32c.027-.293.072-.568.48-.48-.002.267.389.545.479,0-1.022-1.857-2.24-3.52-3.84-4.8-.168,2.93 3.621,3.229 2.881,5.28zm-22.56,20.16c.618-7.2.596-6.888.48-15.36-2.727,2.159-1.455,13.031-.48,15.36zm1.44-14.88c1.416,4.964-.354,9.556 1.44,13.44-.301-4.659.872-10.792-1.44-13.44zm1.92,1.92c1-.956.016-2.05-.96-2.4 .265.854.247,1.994.96,2.4zm3.36,4.32c.411,1.749-.363,4.466 1.44,5.28-.149-4.815-1.266-11.209-4.32-11.52 1.563,1.185 2.273,3.654 2.88,6.24zm2.88,4.32c1.389,2.056.452.458.48-.48 .067-2.286-.591-5.978-.96-8.16-1.569.102-1.94-3.463-3.36-1.92 1.797,3.003 3.812,5.788 3.84,10.56zm2.88-.48c.048-4.848-1.304-8.296-4.319-10.08 2.141,2.658 2.65,6.949 4.319,10.08zm11.52-8.16c.153-1.127 1.485-1.074 1.92-1.92-1.287-1.754-2.794,1.635-1.92,1.92zm-12.96-.96c1.053,2.947 2.61,5.39 3.359,8.64 1.071-3.424-1.756-6.365-3.359-8.64zm14.88,1.44c-.197.818-.619-.101-1.44,0v6.24c1.31.043.967-.8 1.92,0-.311-2.249.628-5.748-.479-7.2-.001.32-.001.64-.001.96zm-20.64,10.08c.467-1.939-.28-7.482-1.44-10.56-.533,2.717 1.202,7.041 1.44,10.56zm11.52-2.4c-.574-2.315-1.328-6.979-2.88-6.72 1.539,1.66 1.087,5.313 2.88,6.72zm-39.84-2.4c.13-.654-.297-1.874-.48-.96-.131.653.297,1.874.48.96zm16.32,10.08c-.509-1.412-1.619-2.221-2.4-3.36 .409,1.511.891,2.95 2.4,3.36zm-1.92,0c.083-1.203-1.075-1.166-1.44-1.92 .202.918.174,2.066 1.44,1.92zm3.36,0c.227-.936-1.292-2.455-1.44-1.44 1.15-.19-.266,2.186 1.44,1.44zm.96,0h1.44c.181-1.461-1.745-.815-1.92-1.92-.108.907.541,1.059.48,1.92zm3.84-.48c-1.407.552-1.783-2.303-2.4-.96 1.102.245 1.543,3.24 2.4.96zm3.36.48c1.222-.059 1.861-.699 1.92-1.92-1.354-.074-1.203,1.357-1.92,1.92zm3.36-.96h.96v-.96h-.96v.96zm1.92.96c1.112.418 1.103-2.442.479-.96 .039.675-1.395.547-.479.96zm5.28-1.44c-.033.006.03.446 0,.48-2.28,2.605 2.305-.887 0-.48zm-31.2,12c-1.999-.882-2.388-3.372-4.32-4.32 .794,1.778 2.642,5.022 4.32,4.32zm30.72,4.32c.988.421 2.155-1.245.96-1.44-.044.756-1.224.376-.96,1.44zm-3.84,12.48c-6.172-.438-7.396-2.847-12-5.28 .033,1.633.149,3.35-.96,3.84 .413-2.493-.708-3.453-1.92-4.32-.081.56-.759.521-1.44.48 .367,2.874-3.323,5.362-1.44,6.72-.565.075-1.363-.083-1.44.48 2.222.717 4.243-.808 7.68,0 .075-.565-.083-1.362.48-1.44 5.208.058 9.447.105 12.48,0 .546-.019 2.165,1.599 1.92-.48-2.729,1.178-.344-6.478-.96-6.24-2.211,1.582.133,4.86-2.4,6.24zm33.12,31.68c-.484.005-.604.841 0,.96 1.485-2.229 2.573,3.604 3.84,2.4 .132.841-1.352,2.395 0,2.88 .766-.354-.109-2.35 1.439-1.92 .259,1.698-.776,2.104-1.439,2.88 1.529.41 1.821-.418 2.399-.96 .823,1.27 2.908,2.775.96,2.88 3.568.544 4.988,6.656 7.681,9.601-10.13-22.051-34.546-40.019-66.72-34.561-2.956.501-8.52,2.046-10.08,3.36 .774-.081 2.474-1.611 2.88-.48-2.387,1.097-4.305,2.555-6.24,2.88 .153-1.127 1.485-1.075 1.92-1.92-9.304,3.433-18.428,8.548-24,15.84-.88,1.151-1.74,4.458-2.4,5.28-.373.463-1.116-.188-1.44.48 .084-.172.997.212.96.48-.034.244-2.595,5.563-3.84,4.32v1.92c-6.599,5.314-10.625,22.733-8.16,32.64 .313-2.727-.631-6.711.48-8.64 .905,4.255-.52,6.35.48,9.6 .107-.372.013-.946.48-.96-.191,9.787 3.232,12.886 4.8,19.681 1.017-2.297 2.362,5.514 4.32,3.84-5.026-8.504-9.438-19.534-8.16-32.641 2.591-26.556 24.787-50.726 53.28-52.8 13.956-1.016 25.378,2.685 33.601,6.72 1.056.519 2.255,3.135 3.84,1.44-1.688-.377-5.695-3.066-4.32-3.36-.059-2.248-.698.522-1.92,0 .448-1.994-5.787-4.038-9.12-5.28 10.741,1.898 18.328,6.951 24.479,13.44zm-85.44,80.64c4.944,4.834 8.471,9.399 13.44,12.479 13.679,8.48 33.826,10.495 49.92,4.8 18.688-6.612 33.414-23.325 37.439-43.68 5.964-30.155-14.799-54.262-34.08-62.4-39.079-16.494-77.62,14.52-80.16,48-1.258,16.574 4.714,30.512 12,39.841 .312.398 1.072.599 1.441.96zm-4.8-.48c-.174,1.148 2.918,2.147 3.36,2.88 1.903-3.679-2.901-5.918-3.36-2.88zm4.32,6.72c-.012-1.122-2.642-3.747-3.84-5.279 .538,2.5 2.694,3.385 3.84,5.279zm86.4-85.92c.107.907-.541,1.059-.479,1.92 1.636.361 1.872-1.833.479-1.92zm26.88,9.6c-.757-.043-.376-1.224-1.439-.96-.423.99 1.581,1.818 1.439.96zm-19.2-.48c-.685.188-.81.576-1.439,0-.228.936 1.292,2.455 1.439,1.44-.374-.106-.558-.402-.479-.96 .51.021 1.218-.226.479-.48zm11.04,14.88c.069-.567.855-1.088 0-1.439-.07.567-.855,1.087 0,1.439zm4.8,1.92c.068-.566.854-1.088 0-1.439-.069.567-.855,1.087 0,1.439zm9.6.48c-1.568,3.123 1.372,1.946 0,0zm-12,1.92c.069-.567.854-1.088 0-1.44-.069.567-.854,1.088 0,1.44zm12.48,5.28c.131-.654-.297-1.874-.479-.96-.132.654.296,1.873.479.96zm-13.44,4.32c.077-.334-.168-2.793-.48-1.439-.421,1.826.257,2.403.48,1.439zm4.8,1.921c1.852.091.512-3.009 1.44-3.841-2.077-.317-.157,3.363-1.44,3.841zm7.68,8.639c-.153-4.184-.06-7.708-.479-10.561-.947,3.02-.502,9.26.479,10.561zm-12.48.96c-.005-.704.182-3.928-.48-2.4 .005.704-.181,3.927.48,2.4zm-122.4,3.359c.13-.653-.297-1.873-.48-.96-.131.655.297,1.875.48.96zm1.44,5.761c-.508-1.412-.66-3.181-1.44-4.32 .19,1.73-.177,4.018 1.44,4.32zm98.88,31.2c-.722,1.139-2.021.479-2.4.96 .484.005.604.841 0,.96-4.971,3.669-10.521,6.758-16.319,9.6 8.324-2.453 14.686-7.022 20.16-12 8.883-8.079 17.307-19.418 18.72-32.16-3.537,14.064-10.592,24.609-20.161,32.64zm12-14.88c-.631-.489-1.77-.47-2.4-.96-.227,2.063 1.292.614 1.44,1.44-.562,1.265-.597,1.672-1.44.479 .23,1.511-.684,1.877-.96,2.881 1.941-.459 2.568-2.232 3.36-3.84zm-2.88,4.32c-1.815.123-3.644,2.732-2.88,3.84 .75-1.491 1.962-2.518 2.88-3.84zm-102.72-6.72c-2.26-4.14-3.515-9.285-5.76-13.44 1.12,4.963 3.448,11.268 5.76,13.44zm108.48-2.4c.431-.076.246-2.654-.479-.96-.124.286.196,1.01.479.96zm-2.4.96c1.333,1.497-1.535,2.065 0,3.36 .614-1.305 1.499-2.341 1.92-3.84-.908-.107-1.059.541-1.92.48zm-103.2,7.68c3.473,5.125-.944-4.168-.96-2.881 .364.975.57,2.305.96,2.881zm99.36-1.44c.069-.567.855-1.088 0-1.44-.07.567-.855,1.088 0,1.44zm-103.2,1.44c.629,2.929 1.324-.009-.48-.48-.537.997-.518,1.017.48.48zm117.6,5.28c.661-.021 1.054.227 1.44.48-.797-1.955 2.286-2.463.479-3.84 .673,2.432-2.201,1.318-1.919,3.36zm-.96.96c.611.982.691,2.223.96,1.44 .818-.197-.101-.619 0-1.44 .267.002.545-.389 0-.479-.106.373-.402.557-.96.479zm-22.56,2.88c.58.102.296.533 0,.96 1.766-.314 2.391-1.77 3.36-2.88-1.624.472-2.348,2.129-3.36,1.92zm-3.84,2.88c1.893.269 2.524-3.204 2.4-3.36-.572,1.348-2.039,1.801-2.4,3.36zm23.04-.48c.989.421 2.155-1.245.96-1.44-.043.756-1.224.375-.96,1.44zm-27.36,3.36c-.443.283-1.42-.186-1.92,0-.966.358-2.107,2.049-2.881,2.399-.762.346-.463-.489-.96.96-.102-.538-.532-.747-.96-.96-.203,1.076-1.029,1.53-1.439,2.4 .144-.78-.648-1.295-.96-.48 1.106-.146.533,1.387 1.439,1.44 .678-1.723 3.191-1.608 3.84-3.36 1.228,1.171 2.624-.197 3.36-.96-.854-.287-1.993,1.407-2.399,0 1.677-.422 3.273-1.769 3.84-1.92 1.746-.466.368-.941 1.92-1.439-.031.01 2.148,2.312 1.439,0-.374-.106-.558-.402-.479-.96-2.043-.552-2.243,1.858-3.84,2.88zm-62.4-1.44c-1.912-1.036-3.347-.528-4.32,0 .607.551 3.785.964 4.32,0zm-2.88,2.4c1.313.446 2.047,1.473 3.36,1.92 .462-1.742-2.157-.403-1.92-1.92 1.12-.142 1.12-1.299 0-1.44 .615,2.452-1.398.508-1.44,1.44zm3.36-.96c1.16,2.469 1.241-1.653 0,0zm.96,1.92c.956,1 2.05.016 2.4-.96-.88-.925-1.625.409-2.4.96zm2.4.96c.826.025 1.23-.37 1.44-.96-.826-.026-1.231.369-1.44.96zm48.96,3.36c-.109-.851.484-2.403-.96-1.92-.134,1.094.116,1.804.96,1.92zm-1.92.48c.756-.713.535-2.145-.96-1.92 .066.894.315,1.605.96,1.92zm-1.44,0c-1.001-.142.712-1.299-.96-1.44-1.001.372.354,2.886.96,1.44zm-63.84.479c.481-.001.571.39.96.48-.001-.481.389-.571.48-.96-.481.002-.571-.389-.96-.48 .002.483-.389.572-.48.96zm1.92.961c.153-.25 1.486-.745 1.92,0-.267-.002-.545.389 0,.479 1.135-1.09-.599-1.436-1.44-1.92 .256.692-1.871,1.172-.48,1.441zm61.44.48c1.38.1 2.438-.122 2.88-.96-1.23.051-2.288.271-2.88.96zm-20.64,2.88c7.813.134 15.052-.309 20.161-2.88-6.157,2.223-14.427,1.262-20.161,2.88zm-35.04,0c.027-.293.071-.568.479-.479-.35,1.577.954.734.96,0-.935-.534-2.454-.225-1.439.479zm8.16,4.8c.373.107.947.014.96.48-.292.027-.568.071-.48.479 1.304-.296 2.248-.951 2.88-1.92-1.405.923-2.359.471-3.36.961zm2.4.96c1.529.53 3.282-2.613 2.4-1.439-1.12.159-2.068.491-2.4,1.439zm16.8-1.44c1.517.076 2.897.017 3.36-.96-1.253.187-2.634.246-3.36.96zm-11.04,3.84c.425-.143 2.439-.961.96-1.44 .418.986-2.442.958-.96,1.44zm.96.48c1.613.013 2.539-.661 3.36-1.44-1.23.37-2.721.479-3.36,1.44zm2.4,0c-.549,1.071 3.774-.489 4.32-1.44-1.764.156-2.656,1.185-4.32,1.44zm37.44,0c-1.734.421-3.203-1.874-4.32-.48 1.313,0 3.08,1.997 4.32.48zm-33.12-.48c-.048.016.038.436 0,.48-2.632,1.866 3.399-1.613 0-.48zm29.76.96c-1.273.273-4.23-1.665-3.36-.479 .756.248 2.571,1.847 3.36.479zm9.12-.48c-.614-.026-.665-.615-1.44-.48-.746,1.182 1.631,1.411 1.44.48zm-38.4.96c-.505.026-.377.615.48.479 4.531-1.483 3.016-1.691-.48-.479zm25.92,0c-1.191.624-1.991-1.409-2.399,0 .29.277 2.276,1.123 2.399,0zm11.04,0c-1.94-1.688-1.132,1.544 0,0zm-34.56.96c.989-.291 3.334.774 2.88-.96-1.229.05-2.288.272-2.88.96zm26.4,0c1.204,1.979 3.644.158 4.801-.48 .613.026.664.615 1.439.48-.873-2.366-4.05.556-6.24,0zm-34.56.48c1.094.135 1.804-.115 1.92-.96-1.094-.134-1.804.115-1.92.96zm2.4.96c.132-.988 1.788-.451 1.92-1.439-1.348-.494-3.338.746-1.92,1.439zm1.44.48c1.067-.373 2.603-.277 2.88-1.44-1.698-.258-2.473.407-2.88,1.44zm23.04-.48c-.672-.036-1.836.107-.96.48h2.88c.291.276 2.277,1.123 2.4,0-.797-.803-2.818-.382-4.32-.48zm7.2.48c-.078-1.89-3.676-1.798-3.36-.48 1.558-.279 2.233.327 3.36.48zm-27.36-.48c-.384,1.579 3.481.274 3.84-.479-1.65-.211-2.69.189-3.84.479zm4.8,0c-.13.989-2.125.114-1.92,1.44 2.775-.534 9.353-1.686 1.92-1.44zm2.4,1.92c4.111-1.059 9.941.604 12.48-.96-4.039-.584-9.634-.966-12.48.96zm68.64-51.36c.026-.826-.369-1.23-.96-1.44-.026.826.37,1.23.96,1.44z" fill-rule="evenodd"/>
 <path d="m133.44,201.12c-2.062-.513-4.149,1.945-5.28,3.84-.374-1.988 2.295-3.351 3.841-4.8 1.751-1.643 3.475-3.637 5.279-4.8-.764,2.436-3.601,2.799-3.84,5.76z" fill="#fff" fill-rule="evenodd"/>
 <path d="m126.72,204.479c1.693.142-1.694,1.299 0,1.44-2.198,1.074-3.175,2.86-5.28,2.88 1.53,1.791-2.236-.713-1.439,2.4-.39-.092-.479-.481-.961-.48v-.96c2.877-1.443 5.69-2.949 7.68-5.28z" fill="#fff" fill-rule="evenodd"/>
 <path d="m114.24,214.56c-2.267-.749-.639-2.378 0,0z" fill="#fff" fill-rule="evenodd"/>
 <path d="m58.56,214.56c.945.517-1.427,1.736-2.4,1.92 .144-1.296 2.019-.861 2.4-1.92z" fill="#fff" fill-rule="evenodd"/>
 <path d="m30.72,203.04c2.197.549 3.708,2.886 5.76,4.32 1.728,1.207 5.613,1.831 4.8,4.319-.888-.072-.294-1.625-.96-1.92-3.573-.005-7.535-3.619-9.6-6.719z" fill="#fff" fill-rule="evenodd"/>
 <path d="m144,112.8c.209.712.613-.189 1.439,0 .255,1.694 1.408,2.146.48,3.84 1.362-2.03.903,1.205.96,1.44 .217.902 3.17,2.423.96,2.88 1.806.445 1.24.277.479,2.4 .816.176.906-.375.96-.96 1.458.591-.521,1.65 0,2.88 1.177-2.116.992,1.94.96,3.84 .467-.014.373-.588.48-.96 .594,3.32-2.269,7.326-2.88,11.04-1.075-2.846 1.738-5.935 1.92-9.12-2.139,3.142-3.101,7.459-3.84,12-.833-4.677 2.084-9.753 3.359-13.92-1.592,1.638-2.726,4.337-3.359,7.68-1.093-3.341 2.25-6.383 2.88-9.6-2.151,1.688-2.878,4.802-3.84,7.68-.739-2.668 1.821-6.171 2.88-8.64-.432-1.298-1.159,1.012-1.44,1.439-1.13-.854 1.346-2.142.96-3.84-1.146,1.574-2.531,2.909-2.88,5.28-1.206-2.182 1.973-4.096 2.4-6.24-2.212.988-2.788,3.612-3.841,5.76-.956-1.773 1.988-3.759 2.4-5.76-.142-1.142-1.299.533-1.439.96-1.162-.436 1.088-1.416.479-2.88-.689,1.07-1.303,2.218-1.92,3.36 .006,1.347 1.31-1.144.96.96-2.901.541-.114-3.296.48-4.801-.936-.114-2.057.609-.48-1.439-.091-.389-.481-.479-.48-.96-1.31-.35-.966.954-1.92.96 .444.836-.016,2.576 1.44,2.399-.539,1.222-1.179,2.342-1.92,3.36-1.211-.632 1.259-1.576.96-2.88-.254-.386-.501-.779-.48-1.44-1.127.153-1.074,1.486-1.92,1.921-.553.854 1.51-3.304.96-4.32 .9,1.525 1.021.365 1.92-.48-.091-.545-.481-.267-.479,0-1.587-.72.997-1.173.479-2.399-.212-.428-.421-.859-.96-.96-.988.132-.451,1.789-1.439,1.92 .432,1.298 1.158-1.013 1.439-1.44 1.312,1.035-1.124,2.364-1.439,3.36-.645-.315-.895-1.026-.96-1.92-1.505.332-.626,1.28-.48,2.399-.648-.612-.959-1.459-1.439,0-.739-.31.981-2.18 1.439-2.88-.617-.922-.992,1.133-2.399,0-.042.682-.08,1.359.479,1.44-2.22,1.271-.854-1.979 0-2.88 .562.078.405.875.48,1.44 .521-.118.325-.954.96-.96-.954-1.608-2.271-.025-2.88,0-.405-1.519-1.534-2.076-1.44-4.32-.591.209-.985.614-.96,1.44-.691.256-1.171-1.871-1.44-.48-1.07-.07.623-1.209 0-2.4-.427.213-.858.421-.96.96-.457-.335.242-2.185-1.439-2.4 .213-.698.421.049.96,0-.418-1.396-.719-.54-1.92-.48-.062-.861.588-1.013.479-1.92-.753.206-.41,1.51-1.92.96-1.046-1.004.24-1.37 0-2.88-.665,1.29-1.359.706-1.92-.48-.545.091-.267.482 0,.48-.53,1.641-1.229-1.258-.96-.96-.866-.962-2.584-.721-1.439-1.92-1.844,1.337-4.288-2.406-3.36-3.84-.775.135-.826-.454-1.44-.48 .511,2.735-3.414-.426-2.399-.96-.559-.078-.854.106-.96.48 .299-1.205-5.955-2.135-5.76-4.32-.428.373-1.084.516-1.921.48 1.281-1.899-3.464.003-3.359-2.4-1.326,1.185-2.438-.753-4.32-.48-.135-.775.454-.826.48-1.44-.821-.021-1.243.357-1.44.96-22.792-6.713-46.586,1.47-59.04,13.44-.389-.091-.479-.481-.96-.48v1.44c-9.463,8.255-18.688,22.664-20.16,38.88-.271,2.988-1.182,7.565-.96,10.561 .036.485.909,1.175.96,1.439 .756,3.934.762,8.057 1.92,12-2.137-2.674-2.298-7.041-2.88-10.08-.651.149-.398,1.202-.48,1.92-.54-3.171.581-5.842 0-10.56-.837,1.624-1.142,12.754-1.44,3.84-2.017.543-.377,4.743-1.44,6.24 .644-.315.894-1.026.96-1.92 1.895.494-.295,2.541 0,4.32 .448-.353.727-.873.96-1.44 1.256,1.133-.783,3.029-.48,4.8 1.505-.095.06-3.14 1.92-2.88-.578,2.622-1.542,4.857-2.4,7.2 .917-1.004 1.548-2.292 1.92-3.84 1.212,1.089-.634,3.179-.96,4.319 1.266.146 1.238-1.002 1.44-1.92 1.365.641-.37,2.135-.48,2.88 .006,1.129 1.31-.175.96-.96 .927,1.43-1.147,3.957-1.92,5.28 1.01.666 2.13-2.651 2.88-3.84 .477,1.77-2.239,4.472-2.88,6.72 1.273-.487 1.301-2.22 2.4-2.88 .945-2.274-.479,2.589-1.44,2.88 .592,1.171 1.329-1.506 1.92-1.92 .817,1.005-1.565,2.895-1.92,4.32 1.534-.706 1.499-2.981 3.36-3.36-1.495,1.736-.168,3.885-2.4,5.28 .596,1.175 1.396-1.438 2.4-1.44 1.257-3.538.589,1.562-1.44,1.44 .435,1.301 1.767-.404 1.92-.96 1.075.35-1.061,1.444-.96,2.399 2.232-1.281 1.691-1.822.96.961 .648-.472.959-1.281 1.44-1.921 1.12-.622-1.208,2.708-1.92,3.36 1.054.234 1.76-.905.48,1.44 .703-.418 1.521-.719 1.44-1.92 1.375-.482-.932,2.633-1.44,3.359 2.123-1.841.936.222 0,1.44 1.09-.35 1.436-1.444 1.92-2.4-.325,1.805.613,2.105-.48,2.88 .75-.512 2.13,2.69 2.88,1.92 1.02.153-.686,1.486-.96,1.92 .434,1.616 1.074.057 1.92.96-.169-.55-.845-1.216-.96-.479 .005-2.992 1.269,1.334.96.96 .625.757 3.853,3.305 2.4,4.32 .21.534 2.12-.096.96,1.439 1.616-.434.057-1.073.96-1.92 .71.25 1.21.71 1.92.96 .128,1.855-1.097,1.894-.48,3.36 .389-.092.478-.481.96-.48-.268-1-1.444.713-.48-.96 .408.089.453-.187.48-.479 .37.324.73,1.595-.48,1.92-.147.582 1.387,1.655 1.44.479 .52,2.399-2.226-.03-3.36-.96-1.886-1.545-3.073-4.453-4.8-4.8v-1.439c-.894-.151-4.416-3.29-3.84-4.801-.091-.545-.481-.267-.48,0-7.738-11.167-13.173-21.46-14.4-36.479-.653-7.995-.228-15.921 1.44-22.561 7.284-28.985 30.348-50.255 61.92-55.68 26.836-4.611 51.863,7.388 64.8,23.04 4.472,3.533 9.31,9.252 10.08,14.884zm-74.88-31.68c2.629-.637 2.876.069 5.28.48-.227-1.549-4.765-2.205-5.28-.48zm-1.92.96c-.894.459-1.604-1.438-1.92,0 .295.14 1.848,1.194 1.92,0zm8.64,0c-5.51-.536-3.437,1.434 0,0zm-4.8.48c-4.611-.598-2.542,1.47 0,0zm-3.84.48c-3.075-.554-1.054,1.466 0,0zm35.04,4.32c2.946-.568 1.203-2.311 0,0zm4.8,0c.331-1.291-.992-.928-1.439-1.44-.088,1.047.392,1.527 1.439,1.44zm-48.96.48c-1.023-2.491-2.661-.853 0,0zm58.08.96c1.638.361 1.873-1.833.48-1.92 .108.908-.541,1.059-.48,1.92zm22.08,24c.115-.685.791-.81.96-1.44-1.31.043-.966-.799-1.92,0-.107-.373-.013-.947-.479-.96 .053,1.226.879,1.68 1.439,2.4zm6.72,5.76c.026-.292.071-.567.479-.479-.055-.586-.144-1.137-.96-.96 .076.564-.082,1.361.481,1.439zm-131.04,18.24c.131-.653-.297-1.873-.48-.96-.131.653.297,1.874.48.96zm.48,7.679c-.384-2.336-.84-4.599-1.92-6.239 .769,1.951-.064,5.504 1.92,6.239zm-1.92,8.161c.555-3.271.345-7.32-.48-8.64 .313,2.727-.631,6.711.48,8.64zm-1.44-6.72c.077-.334-.167-2.793-.48-1.44-.422,1.828.257,2.404.48,1.44zm3.36,2.88c.033-1.633.149-3.35-.96-3.84 .395,1.205-.933,4.133.96,3.84zm-3.36,2.88c-.005-.704.181-3.928-.48-2.399 .005.703-.182,3.927.48,2.399zm3.36,16.799c-.352,2.061.633-3.708 0,0z" fill="#fff" fill-rule="evenodd"/>
 <path d="m29.28,195.84c1.391.269-.736.749-.48,1.44-1.084.256.582-1.871-.48-.48-.545-.091-.266-.481 0-.479-.212-.428-.421-.858-.96-.96-.088-.408.188-.453.48-.48 .227-1.528.376,2.487 1.44.959z" fill="#fff" fill-rule="evenodd"/>
 <path d="m150.72,164.16c-1.431-5.472-4.556-12.088-4.32-19.681 2.046,1.541.625,4.168.96,6.24 .633,3.906 2.686,7.547 3.84,10.561-3.256-7.862-4.389-22.481.48-31.2 1.494.916-.751,2.084-.48,3.36 .27,1.084.749-.582 1.44.479 .078,1.519-1.275,1.604-.96,3.36 .169.672.845.041.96-.48 .012,5.656-.472,13.326.96,19.68-.645-.315-.895-1.025-.96-1.92-.031,2.329.574,9.586-1.44,13.44-.057.11-.922-.111-.96,0-.087.257.647.846.48,1.44-.065.232-.883.304-.96.479-1.836,4.184-2.929,7.83-5.28,12-1.919,3.402-3.511,7.301-6.24,10.56-6.903,8.245-16.435,16.083-27.359,20.641-.435-.847-1.074-1.486-1.92-1.92 .271-.448 1.334-.728.479-.96 .487-.917 2.22.942 2.88,1.439 1.05-.324-.909-1.595-1.439-1.92 1.438.217 1.546-.277 2.399,0 .713-.209-.189-.614 0-1.439 .954.006.61,1.31 1.92.96-.419-.837-1.606-1.85 0-.96 .594-1.554-1.553-.367-.96-1.92 .903.856 2.222,1.298 2.88,2.399 1.051-.324-.909-1.595-1.439-1.92 1.579-.609 4.071-1.224 5.76-3.36 .631-.798.182-3.409 2.4-2.88-.213-.427-.422-.858-.96-.96 1.937-.696 3.932-5.119 5.76-2.88 .087-1.047-.393-1.527-1.44-1.439 .254-.387.501-.779.48-1.44 .979-.964.941.212 1.92.48 .989-.131.114-2.126 1.439-1.921-1.139-.14-.479-.641-.96-1.439 .092-.545.482-.267.48,0 .408.088.453-.188.479-.48 .698.213-.049.422 0,.96 1.231-.048.771-1.788 1.44-2.399 1.795,1.522 1.254.35.96-1.44 2.004-.184.318-.589 2.4-1.439-.142-.448-1.299-.448-1.44,0-1.5.146 1.22-1.387-.479-1.44 .072-1.193 1.625-.141 1.92,0-.413-.387-.285-1.314-.96-1.439 .887-.694 1.451-.959 2.88.479-.637-.804-1.271-1.608-.96-3.36 1.112.135 1.103,1.282.479,1.921 2.549.068.734-2.959 2.4-1.921-.254-.386-.501-.778-.48-1.439-.644.315-.894,1.026-.96,1.92-.331.999.078-2.705-.479-3.84-3.671,6.409-8.223,11.938-12.96,17.28-1.433.688-1.632-.393-2.88.479 .013.467.587.373.96.48-3.315,4.285-8.877,7.833-12.96,8.64 .212.428.421.858.96.96-.341.515-3.741-.169-3.841,1.92-.71-.25-1.209-.71-1.92-.96 .213.428.422.858.96.96-.471,1.472-1.28-.552-1.92-.479-.304.52.898,2.301-1.439.96 .213.427.421.858.96.96-1.143.878-2.892,1.104-3.84,0 .888,1.831-6.197,1.478-8.641,1.92-1.159.21-1.981,1.365-2.88,1.439-2.574.215-5.533-.032-7.68,0-8.226.124-15.601-3.363-20.16-3.359 .091-.389.481-.479.48-.96-2.827,1.258-.845-1.967-3.84,0 1.487-1.48-.964-1.473-1.44-2.4-1.458,1.51-4.848.446-3.84-1.44-1.532-.099-1.458.214-4.32-1.439-1.753-1.013-3.25-2.693-4.32-3.84-.477-.512-1.98-.186-2.4-.48-.725-.51.412-.498 0-.96-.683-.767-2.285-1.443-3.36-2.399-1.567-1.396-3.269-3.488-4.32-4.32-1.131-.895-1.772-.893-1.92-1.44-.495-1.828-2.437-2.18-3.36-2.88 1.127-1.386-3.048-5.102-2.88-5.28-1.472-.471.552-1.28.48-1.92 11.253,17.062 27.86,28.93 50.88,30.721 4.724.367 9.618.045 13.92-.48 23.996-2.931 46.423-24.291 51.84-48 1.968-8.609 1.071-20.471-.96-28.8 1.911,1.13 1.325,4.755 1.92,7.2 .119.604.955.484.961,0-.223,3.264 2.068,8.195.96,12-.299,1.022-3.253.838-.96,2.399 1.283.143-1.276-1.862.96-1.439 .339,2.419-.862,3.299-1.44,4.8 2.422-.542-2.226,4.695.48,5.76 .562-.077.404-.875.479-1.439 .685.915 1.116,2.084 1.44,3.359-.845-.115-1.095-.825-.96-1.92-1.173.307-.073,2.244.479,2.4-1.262,1.538-1.327-2.161-2.4-2.4-1.434,1.622 2.362,2.098 1.44,4.8-.782-.978-1.008-2.512-1.92-3.359-1.452,3.988-3.439,7.44-4.8,11.52 2.204-1.636 1.96-5.72 4.319-7.2 .026,4.484-5.892,7.474-2.399,11.04 1.211-.632-1.259-1.575-.96-2.88 1.233.047.687,1.874 1.92,1.92-1.936-2.385.491-4.519 1.439-6.72 .846.435.794,1.767 1.921,1.92-.482-1.284-1.712-2.281.479-1.439-.528-1.872-3.133-3.686-2.4-5.28 .995,1.245 1.305,3.176 2.881,3.84-.411-1.509-1.815-2.025-1.921-3.84 .93.831 1.371,2.149 2.4,2.88 1.198-.332-.891-1.28-.479-2.4 .971.789 1.914,1.605 1.92,3.36-1.611-.884-.238-.058-.48,1.44-.389-.092-.479-.481-.96-.48 .254.386.501.779.48,1.44 3.515-2.164.141-4.172-.48-7.2 1.566.953 1.208,1.312.96-.96 1.522.558 1.183,2.978 2.88,3.359-1.271-3.367-3.803-5.477-4.319-9.6 1.203,1.196 1.361,3.438 2.399,4.8-.273-3.35-2.861-7.308-1.439-12.96 .658,3.423 2.986,9.61 4.801,13.434zm-2.4-2.88c-.752-2.129-1.052-4.709-2.399-6.24 .404,2.476.786,4.974 2.399,6.24zm-5.28,17.76c-1.265-.335-1.015-2.186-2.399-2.4 .359.951 1.827,3.249 2.399,2.4zm.48-4.8c-.907-.054-.333-1.587-1.44-1.44-.227.935 1.292,2.455 1.44,1.44zm4.8-4.32c-.046-.754.064-1.664-.96-1.44v.961c.481-.003.571.388.96.479zm1.44-3.84c-.666-.19-1.36-2.726-1.92-1.44 .825.031.964,3.121 1.92,1.44zm.96-27.84c-.151-2.005 1.023-2.353 0-3.84-.507.499-.991,3.427 0,3.84zm.96,19.2c-2.022-4.182-1.989-14.674-1.92-18.24-.962,6.769-1.125,13.601 1.92,18.24zm-.48-10.08c.132-2.312.82-6.046 0-8.641-.392,2.181-1.077,6.588 0,8.641zm.96,6.24c-.99-1.409.523-5.323-1.439-5.76-.016,2.415.237,4.562 1.439,5.76zm-7.2,19.68c1.69,3.453-.712-1.456 0,0zm-3.84,1.92c.093,1.404 3.105,4.275 2.4,3.359-.026-.613-.615-.664-.48-1.439 .691-.257 1.172,1.87 1.44.479-1.469-.611-1.411-2.748-2.88-3.359-.26,1.699 1.699,1.18 1.439,2.88-1.233-.047-.685-1.874-1.919-1.92zm3.84,0c2.454,3.435-.72-1.009 0,0zm-.96.48c1.576,3.676-.66-1.539 0,0zm-2.4,6.72c.027.292.071.567.479.479 .282-1.555 1.009-.897 1.44-1.439-1.872-1.205 1.591-.338 0-.961-.149.299-2.954-1.886-1.92-.96 2.199,1.419-.699,3.051.001,2.881zm-16.8,18.24c.435-.846 1.767-.793 1.92-1.92-.814.191-2.844,1.575-1.92,1.92zm-72.96,3.839c3.123,1.569 1.947-1.372 0,0z" fill="#fff" fill-rule="evenodd"/>
 <path d="m55.68,200.64c-.41-1.5 2.18,1.811 3.36.48-.091.389-.481.479-.48.96 2.088.815 8.605.457 12,3.36 .817-2.076 5.148.162 7.68,0v2.399c-11.028.989-20.438-3.474-28.32-7.2 .684-1.112 2.604.559 3.36.96 .888-.072.295-1.625.96-1.92 1.041-.081.218,1.703.48,2.4 .59-.536.985-.418.96.479 .778.345.778-2.261 0-1.918zm8.16,4.8c.826.025 1.23-.37 1.44-.961-.826-.025-1.231.371-1.44.961z" fill="#fff" fill-rule="evenodd"/>
 <path d="m45.12,197.28c-.632,1.211-1.576-1.259-2.88-.96 .723-1.301 2.071.764 2.88.96z" fill="#fff" fill-rule="evenodd"/>
 <path d="m19.2,165.12c1.916,4.87 4.261,9.024 6.24,13.439-.757.803-2.204-.624-2.4,1.44 .969-3.853-4.894-10.885-3.84-14.879z" fill="#fff" fill-rule="evenodd"/>
 <path d="m117.6,204.96c.512-2.022 2.591-.909 0,0z" fill="#fff" fill-rule="evenodd"/>
 <path d="m104.64,212.64c.597-.874 2.451,1.037 3.36,1.44 1.471-1.042-2.396-.767-1.921-2.4 1.222.539 2.342,1.18 3.36,1.92 .36-1.64-1.95-.609-1.439-2.399 1.055.545 1.594,1.605 2.88,1.92-1.072,1.168-3.134,1.347-4.801,1.92-1.507.227-1.268-1.292-2.399-1.44 .599-1.027 1.967,1.195 3.359.96-.774-.666-1.519-1.361-2.399-1.921z" fill="#fff" fill-rule="evenodd"/>
 <path d="m104.16,216c-2.015,1.459-4.867,1.608-7.199.479 .484-1.351 2.038.133 2.88,0-.353-.447-.873-.727-1.44-.96 1.285-1.408 2.527,1.285 4.32.96-.723-.877-2.071-1.129-2.88-1.92 1.384-1.352 2.803,1.334 4.319,1.441z" fill="#fff" fill-rule="evenodd"/>
 <path d="m35.52,87.36c-.699-1.274 2.977-1.714 0,0z" fill="#fff" fill-rule="evenodd"/>
 <path d="m90.72,55.2c.299-5.142 5.63-5.25 7.2-9.12-1.908-.138-3.189,4.483-6.721,4.32 .65-1.11 1.93-1.59 1.44-3.84-.688.592-.909,1.65-.96,2.88-1.083-.357-.188-2.692-.48-3.84 .775-.135.826.454 1.44.48 4.035-4.541 5.87-10.916 2.399-15.84-4.584-6.504-16.453-7.005-24-4.32 2.86.192 1.03.743.48,3.36 1.162-1.718 1.808-3.952 4.8-3.84-.383.897-.802,1.758-.96,2.88 .767-.673 1.227-1.653 1.44-2.88 1.515,4.59-1.06,7.917-.96,13.44-1.336-1.064-1.709-5.109-.96-6.72-1.746,1.134-1.063,4.697-1.44,7.2-1.229-.531-.942-2.577-.96-4.32-2.224,1.042-.338,2.805-.96,3.84-1.137-.943-.977-3.183-.96-5.28-2.049.191-.458,4.022-.96,5.76-2.017-2.746-.69-8.503.48-11.04-1.854,2.318-2.749,7.022-1.92,10.56-2.999-2.871-.247-10.217 2.4-12.48-6.959,1.497-9.676,13.407-3.84,18.24v6.72c-5.61-4.261-10.002-9.384-10.56-16.8-1.061-14.128 11.814-25.139 24.962-24.48 14.333.719 27.416,19.12 17.28,34.56 2.058-.669 3.974-5.622 4.8-9.12 2.175,1.277-.415,4.246.48,5.28-.092.545-.481.267-.48,0-2.646,6.375-5.962,12.449-12.48,14.4zm-18.72-22.56c-.235,2.26.865,1.161.48-.48 .595-2.125 1.418-4.021 2.4-5.76-2.11.93-2.189,3.892-2.88,6.24zm2.4-1.44c1.449.74 1.263-2.484.48-2.4 .197,1.157-.877,1.043-.48,2.4z" fill="#fff" fill-rule="evenodd"/>
 <path d="m98.4,15.36c1.6,1.281 2.817,2.943 3.84,4.8-.091.545-.481.267-.479,0-.408-.088-.453.187-.48.48 .739-2.051-3.05-2.35-2.881-5.28z" fill="#fff" fill-rule="evenodd"/>
 <path d="m82.56,25.92c3.055.311 4.171,6.705 4.32,11.52-1.804-.814-1.029-3.531-1.44-5.28-.607-2.586-1.317-5.055-2.88-6.24z" fill="#fff" fill-rule="evenodd"/>
 <path d="m84.48,25.92c1.42-1.543 1.791,2.021 3.36,1.92 .369,2.182 1.027,5.874.96,8.16-.028.938.908,2.536-.48.48-.028-4.772-2.043-7.557-3.84-10.56z" fill="#fff" fill-rule="evenodd"/>
 <path d="m104.64,25.92c-.435.846-1.767.793-1.92,1.92-.874-.285.633-3.674 1.92-1.92z" fill="#fff" fill-rule="evenodd"/>
 <path d="m74.88,26.4c-.981,1.739-1.805,3.635-2.4,5.76 .385,1.641-.715,2.74-.48.48 .691-2.348.77-5.31 2.88-6.24z" fill-rule="evenodd"/>
 <path d="m93.12,35.52c-.749-3.25-2.307-5.693-3.359-8.64 1.602,2.275 4.429,5.216 3.359,8.64z" fill="#fff" fill-rule="evenodd"/>
 <path d="m82.56,27.84c1.16,3.078 1.907,8.621 1.44,10.56-.238-3.519-1.973-7.843-1.44-10.56z" fill="#fff" fill-rule="evenodd"/>
 <path d="m92.64,29.28c1.552-.259 2.306,4.405 2.88,6.72-1.793-1.407-1.341-5.06-2.88-6.72z" fill="#fff" fill-rule="evenodd"/>
 <path d="m69.6,40.32c.781,1.139 1.891,1.949 2.4,3.36-1.509-.41-1.991-1.849-2.4-3.36z" fill="#fff" fill-rule="evenodd"/>
 <path d="m68.64,41.76c.365.755 1.522.717 1.44,1.92-1.266.146-1.238-1.002-1.44-1.92z" fill="#fff" fill-rule="evenodd"/>
 <path d="m72,42.24c.148-1.015 1.667.504 1.44,1.44-1.706.746-.29-1.63-1.44-1.44z" fill="#fff" fill-rule="evenodd"/>
 <path d="m73.92,41.76c.175,1.105 2.101.459 1.92,1.92h-1.44c.061-.861-.588-1.013-.48-1.92z" fill="#fff" fill-rule="evenodd"/>
 <path d="m75.84,42.24c.617-1.343.993,1.512 2.4.96-.857,2.28-1.298-.715-2.4-.96z" fill="#fff" fill-rule="evenodd"/>
 <path d="m87.36,42.72c.623-1.482.633,1.378-.479.96-.917-.413.517-.285.479-.96z" fill="#fff" fill-rule="evenodd"/>
 <path d="m56.64,49.92c1.932.948 2.321,3.438 4.32,4.32-1.678.702-3.526-2.542-4.32-4.32z" fill="#fff" fill-rule="evenodd"/>
 <path d="m90.24,64.8c.616-.238-1.769,7.418.96,6.24 .245,2.079-1.374.461-1.92.48-3.033.105-7.272.058-12.48,0-.562.078-.405.875-.48,1.44-3.437-.808-5.458.717-7.68,0 .077-.562.875-.405 1.44-.48-1.883-1.358 1.807-3.846 1.44-6.72 .681.042 1.359.08 1.44-.48 1.212.868 2.333,1.827 1.92,4.32 1.109-.491.993-2.207.96-3.84 4.605,2.433 5.828,4.842 12,5.28 2.533-1.38.189-4.658 2.4-6.24z" fill="#fff" fill-rule="evenodd"/>
 <path d="m48.48,77.28c1.879-.139-1.509.682-2.88,1.44-21.977,12.157-40.34,31.871-42.24,64.32-.59.536-.986.418-.96-.48 3.665-33.456 20.33-53.909 46.08-65.28z" fill-rule="evenodd"/>
 <path d="m96.48,89.28c3.333,1.243 9.568,3.286 9.12,5.28 1.222.522 1.861-2.248 1.92,0-1.375.293 2.633,2.982 4.32,3.36-1.585,1.695-2.784-.921-3.84-1.44-8.223-4.036-19.645-7.736-33.601-6.72-28.493,2.074-50.688,26.244-53.28,52.8-1.279,13.106 3.133,24.137 8.16,32.641-1.958,1.674-3.303-6.137-4.32-3.84-1.568-6.795-4.991-9.894-4.8-19.681-.467.014-.373.588-.48.96-1-3.25.425-5.345-.48-9.6-1.111,1.929-.167,5.913-.48,8.64-2.465-9.906 1.561-27.325 8.16-32.64v-1.92c1.245,1.243 3.807-4.076 3.84-4.32 .037-.268-.876-.652-.96-.48 .324-.668 1.068-.017 1.44-.48 .66-.822 1.52-4.129 2.4-5.28 5.572-7.292 14.696-12.407 24-15.84-.435.845-1.767.793-1.92,1.92 1.935-.326 3.853-1.783 6.24-2.88-.406-1.131-2.105.399-2.88.48 1.56-1.314 7.125-2.859 10.08-3.36 32.174-5.458 56.59,12.509 66.72,34.561-2.692-2.944-4.112-9.056-7.681-9.601 1.948-.104-.137-1.61-.96-2.88-.578.542-.87,1.37-2.399.96 .663-.776 1.698-1.182 1.439-2.88-1.549-.43-.674,1.565-1.439,1.92-1.352-.485.132-2.039 0-2.88-1.267,1.204-2.354-4.628-3.84-2.4-.604-.119-.484-.955 0-.96-6.15-6.489-13.737-11.542-24.479-13.44zm-76.8,51.36c.077-.334-.168-2.793-.48-1.439-.422,1.826.258,2.403.48,1.439z" fill="#fff" fill-rule="evenodd"/>
 <path d="m31.2 184.32c1.198 1.532 3.828 4.157 3.84 5.279-1.146-1.893-3.302-2.778-3.84-5.279z" fill="#fff" fill-rule="evenodd"/>
 <path d="m102.24,87.36c1.203-2.311 2.946-.568 0,0z" fill-rule="evenodd"/>
 <path d="m58.08,87.84c-2.661-.853-1.023-2.491 0,0z" fill-rule="evenodd"/>
 <path d="m87.36,92.64c4.229-1.024 9.093,1.463 12.96,2.4-4.227.139-8.082-2.42-12.96-2.4z" fill-rule="evenodd"/>
 <path d="m67.2,93.12c-3.562,1.618-5.959,1.427-9.12,3.36 .301-1.947 5.768-2.866 9.12-3.36z" fill-rule="evenodd"/>
 <path d="m68.16,94.08c.091-.545.481-.267.48,0 .908.952 2.268.233 3.36,0 1.138-.396 2.211.676.48.48-7.905,1.215-14.415,3.825-20.16,7.2-.14-.719-.641-.858-1.44-1.92-6.327,4.073-12.148,8.651-16.32,14.88 .119.521.954.326.96.96 .716-1.064 3.379-2.673 2.4-3.84 1.74-.895 4.272-2.207 3.36-4.32 1.804,1.43 4.837-2.04 4.32-2.88 1.214-.097 3.791-1.608 5.28-2.88-4.165,4.796-12.486,9.593-16.32,16.32-1.016,1.17.564-1.506.96-1.92-.119-.521-.955-.326-.96-.96-1.542.219-1.652,1.868-2.4,2.88 .475-2.252 2.264-4.869 3.84-6.72 4.838-5.682 11.741-10.562 18.72-13.92-.77.831-1.794,1.406-2.88,1.92 .254.386.501.779.48,1.44 2.263-.297 2.942-2.177 5.28-2.4-1.634-1.88-1.243-2.271.48-.48 3.226-1.628 9.276-2.384 10.08-3.84z" fill-rule="evenodd"/>
 <path d="m34.08,182.4c-7.286-9.329-13.258-23.267-12-39.841 2.54-33.48 41.081-64.493 80.16-48 19.281,8.138 40.044,32.245 34.08,62.4-4.025,20.354-18.752,37.067-37.439,43.68-16.095,5.695-36.241,3.681-49.92-4.8-4.969-3.08-8.496-7.646-13.44-12.479-.37-.361-1.13-.562-1.441-.96zm44.64-89.28c1.64.36.609-1.95 2.4-1.44 2.047.318 4.38,1.592 5.76,0-3.189.458-6.503-1.482-9.12,0 .603.197.981.619.96,1.44zm-11.04,0c2.421-.299 4.85-.59 6.72-1.44-2.82-.1-5.08.36-6.72,1.44zm32.64,1.92c-3.867-.937-8.73-3.424-12.96-2.4 4.878-.02 8.733,2.539 12.96,2.4zm-42.24,1.44c3.161-1.933 5.559-1.742 9.12-3.36-3.352.494-8.819,1.413-9.12,3.36zm26.4-1.92c.069-.567.854-1.088 0-1.44-.069.567-.855,1.088 0,1.44zm-26.4,3.36c-1.723-1.792-2.114-1.4-.48.48-2.338.223-3.018,2.103-5.28,2.4 .021-.661-.226-1.054-.48-1.44 1.086-.514 2.111-1.089 2.88-1.92-6.979,3.358-13.882,8.238-18.72,13.92-1.576,1.851-3.365,4.468-3.84,6.72 .748-1.012.858-2.661 2.4-2.88 .005.634.841.438.96.96-.396.414-1.976,3.09-.96,1.92 3.834-6.727 12.155-11.524 16.32-16.32-1.489,1.272-4.065,2.784-5.28,2.88 .517.84-2.517,4.31-4.32,2.88 .913,2.113-1.62,3.425-3.36,4.32 .979,1.167-1.684,2.775-2.4,3.84-.006-.634-.841-.438-.96-.96 4.171-6.229 9.993-10.807 16.32-14.88 .799,1.062 1.3,1.201 1.44,1.92 5.745-3.375 12.255-5.985 20.16-7.2 1.731.196.658-.876-.48-.48-1.092.233-2.452.952-3.36,0 .001-.267-.389-.545-.48,0-.804,1.456-6.854,2.212-10.08,3.84zm21.12,12.96c-1.271-2.961-1.769-8.692-2.4-11.04-.387-1.439.231-4.042-1.44-4.32-1.082,2.875 1.898,7.76.48,11.04 .796.456 2.879,4.661 0,4.32-1.643-.47 1.284-2.77-.48-3.36-.17,1.589-.375,3.145-1.44,3.84 3.52-.312 8.492.458 10.56,0-.826.026-1.23-.37-1.44-.96-.094-4.944.134-11.96 0-15.36-3.748,2.365.613,13.229-2.399,15.84 .255-5.185-.551-11.431.48-15.84h-1.44c-.106,7.45-.034,11.263-.481,15.84zm-4.8-15.36c-3.074-.554-1.054,1.466 0,0zm32.16,4.8c-.147-1.107 1.387-.533 1.44-1.44-2.343-.707-5.126-3.502-7.2-2.88 1.932,1.567 6.293,1.689 5.76,4.32zm-5.28-2.4c-.952-.047-4.208-1.688-3.359-.48 1.275-.271 2.443,1.975 3.359.48zm-48.96,5.76c.121.214 3.406-2.571 0-.96-.562.266-1.229,1.167-3.36,2.88 1.478.357.922-1.318 2.4-.96 2.146,3.135 5.274,5.286 6.24,9.6 .082-.718-.171-1.771.48-1.92 .724,1.516 2.427,2.053 2.4,4.32-.908-.107-1.059.541-1.92.48-.667-.043-.294-3.453-.96-1.92-.348,1.468.828,1.412.48,2.88 2.297-1.063 4.551-2.169 6.24-3.84-2.335-1.283-2.984-4.313-4.32-6.72-1.185-2.135-2.53-5.901-5.28-6.24 2.262,4.938 5.461,8.938 7.68,13.92-2.143-2.017-4.6-3.72-5.28-7.2-2.907-1.111-3.903-2.735-4.8-4.32zm59.04-2.4c-.506,2.786 2.08.2 0,0zm-14.4,13.44c-.895.459-1.604-1.438-1.921,0 .981.46 1.9.98 2.881,1.44 2.527-4.832 5.44-9.279 8.159-13.92-.66.021-1.054-.226-1.439-.48-2.508,4.372-4.943,8.817-7.68,12.96zm-42.24-11.04c2.077,5.613.48-.742 0,0zm63.84,7.2c1.14-.3 2.234-.646 2.4-1.92-1.508-.227-1.269,1.292-2.4,1.44-1.154-1.814-5.295-5.465-5.76-4.8 2.036,1.644 4.246,3.114 5.76,5.28zm0-3.84c-.491.056-.971-2.071-1.44-.48 .691-.256 1.172,1.871 1.44.48zm1.92,6.24c.747.125.333,1.053 0,1.44-13.678,7.922-23.631,19.569-37.44,27.36-8.835-5.018-12.938,9.577-4.8,11.52-.038,4.276.205,10.324-.479,12.48-2.649-.089-4.372.748-5.76,1.92 1.269.674 2.57-2.031 5.28-1.44-.235,1.516.865,1.695.48,3.36-3.971,2.646.43,7.693-.48,12.96-1.254.334-5.876,1.151-6.72-.479 .565-.075 1.362.082 1.44-.48h-1.92c-.004,2.069 1.531,1.396 0,2.88 2.554,1.755 4.862-2.15 7.2-.479 .099,1.333-1.716,4.941.48,5.279-.058-2.298-.032-4.512.96-5.76-.145,1.265.665,1.575 1.92,1.44 1.203-.397 1.518-1.682 2.399-2.4 2.563-.521 7.017-1.216 10.08-1.439 1.146-.084 3.957-2.109 3.36.96-.649-.151-.917-.684-1.92-.48-.746,1.706 1.63.29 1.44,1.44 .149,3.592-1.582,7.04-3.36,7.199 .747.126.333,1.053 0,1.44-.683-1.758-3.143.123-1.92-.48 .825-.025 1.23.37 1.439.96-1.121,1.424-3.29,3.87-5.279,2.881-.36,2.035-5.531,3.306-6.72,1.439 1.526.215 4.736-.341 3.84-.96-2.846,1.041-7.156.376-9.601-.479 .287,1.247-.192,1.727-1.44,1.439 .319-.681 2.107-3.788.96-2.88-.562.718-.597,1.963-1.44,2.4-1.566-1.165-5.144-2.843-4.8-4.32 2.172-1.004 2.685,3.16 4.8,2.4-1.937-.955-2.935-4.278-5.76-2.881-.459-.396-.981-3.104-1.44-1.92 1.644,3.419 3.919,6.178 7.2,7.681 2.744,1.257 6.181.712 7.68,1.439 .416.202-.35,1.473.48,1.44-.234.009.35-1.38.48-1.44 3.904-1.803 7.677-1.733 10.56-4.319 11.113-9.973 3.047-28.795-12.48-29.28 .834-3.165.36-7.64.48-11.521 5.357-.571 8.263-5.633 5.28-10.56 7.438-3.817 12.595-10.567 19.68-14.88 1.238-.754 3.064-1.027 4.32-1.92 4.452-3.165 7.225-8.829 12.479-11.04 1.201-.634 1.503,1.897 1.92.479-1.291.016-1.291-2.415 0-2.4 1.09-.235 1.436,2.65 1.92,1.44-.918-.705-1.962-3.766-2.88-2.88 1.36,1.898-1.738,1.502-1.918,1.441zm11.52,13.92c.266-1.628-3.183-7.876-4.801-9.601 .553,1.408-2.302,1.783-.96,2.4 .09-.711 1.16-.44 1.92-.48 1.176,2.666 2.454,5.229 3.841,7.681zm-96.96-6.24c.907-.053.333-1.587 1.44-1.44 .194,1.902 3.612,3.087 2.88,4.32-2.168-.391-3.731-1.388-5.76-1.92 .371,1.227-1.878,2.207-.48,2.88-.026-.825.37-1.23.96-1.439 4.999,1.941 8.44,3.717 13.44,4.8 .075.564-.083,1.362.48,1.439 .107-1.204 2.433-2.644 1.44-3.359-.102.538-.533.747-.96.96-4.957-1.923-9.847-3.914-12-8.641 .267.002.545-.389 0-.479-.545.567-2.381,3.901-1.44,2.879zm-4.8-.96c-.769,1.889 2.073.167 1.92,1.44-.747-.039-.333,1.396 0,.479 .067-.933 2.562-3.334 1.44-2.4-1.106,1.155-1.548.733-3.36.481zm95.04,2.4c.233.566.512,1.088.96,1.439-.296-1.304-.952-2.248-1.92-2.88-4.247,2.793-8.42,5.66-13.439,7.68 3.839-3.521 9.157-5.562 13.439-8.64-2.569-.394-5.354,1.472-7.68,2.88-2.408,1.457-4.698,3.692-7.2,4.8 1.641.919 1.645,3.477 3.36,4.32 .196-1.156-.877-1.043-.48-2.4 4.603-2.116 8.329-5.111 12.96-7.199zm-97.44,4.32c-.27-1.275 1.975-2.444.48-3.359 .224,1.229-1.697,2.72-.48,3.359zm50.88-2.4c-.757-.044-.376-1.225-1.44-.96-.422.99 1.582,1.818 1.44.96zm3.36.96c-1.826.705-.094-2.146-1.92-1.44-.627,1.483 1.362,2.723 1.92,1.44zm-5.76,1.92c.026-.826-.369-1.23-.96-1.44-.026.826.369,1.23.96,1.44zm53.76,1.44c-.213-1.226-.673-2.206-1.439-2.88 .371,1.067.276,2.602 1.439,2.88zm-48-1.44c.826.025 1.23-.37 1.44-.96-.826-.026-1.23.369-1.44.96zm3.84,3.36c1.312-1.408-2.298-4.888-2.4-1.92 3.121-.688.419,1.468 2.4,1.92zm-38.88.48c-.783-1.155-2.623-3.752-3.84-2.88 1.63.61 1.818,2.662 3.84,2.88zm25.44-1.92c.836-.036 1.493.107 1.92.479 .361-1.636-1.834-1.871-1.92-.479zm6.24-.48c1.824,1.328 2.11-1.761 0,0zm55.2,3.36c-.122-1.798-.754-3.087-1.92-3.84-.316.645-1.026.894-1.921.96-.048.903.587,3.498.96,2.4 .108-.908-.541-1.06-.479-1.921 .907.108 1.059-.541 1.92-.479 .665.775.405,2.475 1.44,2.88zm-59.04-2.4c1.042,2.159 2.6,3.801 4.32,5.28 .046-1.233 1.874-.687 1.92-1.92-3.408,2.282-2.674-1.879-3.84-3.84-.623,1.19 1.071,2.329 0,2.4-1.35.069-1.384-1.176-1.44-2.4 .373-.107.947-.014.96-.48-1.31-.35-.966.954-1.92.96zm8.64-.48c-1.94-1.688-1.132,1.544 0,0zm-1.44,2.401c-.713-.756-2.145-.535-1.92.959 1.822.511 3.658-1.418 2.879-1.92-.101.539-.532.748-.959.961zm50.4,4.319c-1.472-.471.552-1.28.48-1.92-.565-.075-1.363.083-1.44-.479-.69-3.149-.312,4.631.96,2.399zm2.88,3.36c.058-2.778-.571-4.868-1.439-6.721 .297,2.422.589,4.851 1.439,6.721zm-111.84,12.96c-.378-2.138.328-3.192.96-4.32-.585-.054-1.136-.144-.96-.96-.465-4.531 1.619-10.551.96-12.479-1.103,4.287-2.251,14.197-.96,17.759zm110.88-12.48c-3.014.265-.776-1.755-2.399-2.88-.538,2.004.856,4.547 2.399,2.88zm-.48,12c-1.942-1.861.899-9.181-.48-10.56 .986.986-1.77,9.543-.479,11.04 3.602-.679 1.02,3.829.96,5.28-1.058.316-1.917-2.693-1.92-.48-.455,1.734 1.89.67 2.88.96 .756-5.509 1.86-14.237.479-17.76-.563,3.757 1.336,9.976-1.44,11.52zm-108-8.159c-.005-.704.182-3.929-.48-2.4 .005.703-.181,3.927.48,2.4zm105.6-.961c.131-.653-.297-1.873-.48-.96-.13.654.297,1.874.48.96zm-98.88,3.36c-1.394.526-3.407.434-4.8.96-.075-.564.083-1.362-.48-1.439 .276.844-.58,2.819.48,2.88 4.729-1.19 10.155-1.686 15.36-2.4-.263-.697.561-2.48-.48-2.399-2.934,3.053-12.432,1.928-14.88,0-.107-.373-.013-.947-.48-.961-.586,3.465 3.982,1.777 5.28,3.359zm83.04-1.92v5.76c5.145.296 11.486-.606 15.84.48-.123-2.344.805-3.252-.48-4.8-3.845.799-11.034.799-14.88,0 1.843-.834 4.881-.466 7.681-.48 2.899-.016 6.43.805 7.68-.96-4.386-1.135-12.795-.283-15.841,0zm-90.72,1.92h.96v-.96h-.96v.96zm16.8,2.4c-3.718-.036-10.036,1.021-14.4.479 .276.844-.58,2.82.48,2.88 .075-.564-.083-1.362.48-1.439 3.579.008 7.899-.503 11.52-.48 1.413.009 3.53.814 3.84-.479-.148-1.106-1.176-.954-1.92-.961zm91.2,6.24c.077-.334-.168-2.793-.48-1.439-.422,1.826.258,2.403.48,1.439zm-108.96,1.44c.063-.631.073-3.473-.48-1.92-.063.631-.073,3.473.48,1.92zm.96,2.88c-1.303.344.343-2.264-.96-1.92-.273.982.146,3.601.96,1.92zm105.12,7.2c.257-3.455 2.514-4.492 1.44-7.68-.218,2.513-2.551,5.435-1.44,7.68zm3.84-4.8c-.224-.918 1.479-2.066-.48-1.92 .082.718-.172,1.772.48,1.92zm-6.72,6.24c-.232.567-.512,1.089-.96,1.44-2.998-3.067-11.091-4.139-12.96-7.68-.199-.378.547-.655.48-.96-2.251,2.233-5.055,6.459-5.28,9.12 1.362-1.636 5.19,2.027 7.68,3.359 2.695,1.442 5.356,2.596 7.2,2.88-1.966-3.154-6.674-3.565-9.12-6.239 4.216.744 6.654,3.265 10.08,4.8-.001-1.602 1.562-1.639 1.44-3.36-4.418-2.782-9.965-4.435-13.44-8.16 4.725,2.636 10.215,4.506 13.92,8.16-.054-1.168 2.229-4.054.96-3.36zm-91.68,7.2c4.078-2.644 8.716-7.281 13.44-7.68-5.072,2.288-7.597,7.123-12.48,9.6-.612-1.201.244-1.502-.48-1.92-.669,1.812 1.604,4.344 3.36,5.28 .593-1.553-1.553-.367-.96-1.92 3.435-4.086 8.271-6.77 11.04-11.521-.675-.125-.547-1.053-.96-1.439-5.098,1.783-9.778,6.539-13.92,7.68 2.741-2.502 7.066-5.407 10.08-7.2 1.216-.724 2.926-.748 3.36-1.92-4.866-.03-9.611,6.681-14.4,6.721 3.889-3.547 10.686-4.749 12.96-9.601-4.428,2.933-8.937,5.784-13.92,8.16 .433,2.447 1.39,4.37 2.88,5.76zm-7.2-8.64c.006-.635.841-.438.96-.96-1.107-.813-.635-3.205-1.92-3.84 .32,1.867.976,3.93.96,4.8zm-1.44,0c-.724-.876-.509-2.69-1.44-3.36 .039,1.274.846,4.231 1.44,3.36zm101.76,3.36c.102-.539.532-.748.96-.961 .007.63 1.331.612 1.439,0-1.785.506-.94-1.618-1.92-1.92 .214,1.069-1.482,2.604-.479,2.881zm-97.44,5.76c-1.695-1.984-2.318-5.042-3.84-7.2-.853-2.281-.114.614 0,.96 2.724,8.235 12.417,19.422 18.72,22.56-5.361-4.472-12.146-9.833-13.92-16.319-.006.484-.841.603-.96-.001zm4.8,5.279c.106-.373.402-.558.96-.479 2.014,2.866 5.305,6.865 8.16,8.64 1.329.826 7.983,5.059 8.16,5.761 .07.275-2.739,1.8-.48,1.439 .761-3.193 3.332.959 4.8-.479-12.98-5.58-21.864-15.257-27.84-27.841 .791,5.376 5.553,9.046 6.24,12.959zm30.24-6.719c1.083-1.477 1.772-3.348 3.84-3.84 .026.613.615.665.48,1.44-.754.045-1.665-.064-1.44.96 1.407-.033 1.783-1.098 2.4-1.92-2.34-.114-.886-1.336 0-1.921-2.443.766-5.656,3.293-5.28,5.281zm7.2-2.88c-.846.138-1.486-2.26-1.92-.96 .565.143 1.205,2.542 1.92.96zm56.16,1.44c.345-.396 1.505-3.104.479-1.92-.344.396-1.504,3.105-.479,1.92zm-.96.96c-.425-.369-1.371.295-1.44.479-.679,1.81 2.388.345 1.44-.479zm-61.92,1.92c-2.782-1.385-1.263,1.185 0,0zm58.56,4.8c-.013-1.952 2.806-3.57 1.92-4.8-.357,1.581-3.009,3.366-1.92,4.8zm-71.04,8.16c-.417.788-1.873,2.982-.479,3.359 2.782-2.341 4.766-9.631 8.64-12.479-.519,3.487-4.375,6.178-4.32,8.64 .281-.427 1.009-2.737 1.44-1.439-.222,2.447-3.512,6.03-1.44,7.68 1.468-5.252 3.488-9.951 4.8-15.36-1.955-.458-4.267-3.074-5.76-2.399 .603.196.981.619.96,1.439-2.565,4.155-4.4,9.04-7.68,12.48 3.153,1.251 3.68-3.333 4.8-5.28 1.471-2.557 3.664-4.795 4.32-7.2h.96c-1.13,3.724-4.688,7.628-6.241,10.559zm9.6-11.04c.718-.082 1.771.171 1.92-.48-.638-.623-1.786-.633-1.92.48zm47.04,13.44c.603.197.98.619.96,1.44-1.5.581-2.088,2.073-3.84,2.4-.115-.686-.791-.81-.961-1.44 1.016-.22 3.992-2.666 2.881-1.92-1.576.185-2.117,1.403-3.36,1.92-.196,1.156.877,1.043.479,2.4-5.925,2.715-12.37,4.909-19.199,6.72 16.536-2.344 29.355-10.964 36-21.601-.99,1.523-2.85,3.252-3.84,3.36 1.012,1.356-1.931,2.852-2.881,3.84-.114-.521-.79-1.152-.96-.479 1.013,1.628-3.091,4.412-4.319,3.84-.244-2.563 2.532-2.68 3.84-3.84 2.959-2.627 4.853-6.358 8.16-8.641-.799-1.507 1.785-1.961.479-2.399-3.577,5.701-8.99,9.569-13.439,14.4zm-44.64-13.44c2.694,1.996 1.371-.797 0,0zm55.2,1.44c-.07-.638 1.614-1.785.48-1.92 .072.639-1.952,1.449-.48,1.92zm-12.48,12c.104-2.765-.537.367-1.44,0-1.284-.521-2.695-3.74-4.32-5.76-1.756-2.183-3.535-3.879-4.8-5.28 .897,2.859 3.563,9.594 3.84,9.601 .316-1.756-1.038-1.842-.96-3.36 2.028,1.492 3.48,3.561 4.8,5.76 1.405.125 1.475-1.086 2.88-.961zm-42.72-6.72c.698-.263 2.481.562 2.4-.479-.565-.075-1.363.082-1.44-.48 .372-.107.947-.014.96-.479-1.202-.084-1.503.736-1.92,1.438zm-2.88,1.44c.894-.066 1.604-.316 1.92-.96-1.878.758-.994-1.246-1.92-1.44v2.4zm3.36,5.28h1.44c-.467-1.001-1.366-4.037-2.4-2.88 1.018.385 1.871,1.976.96,2.88zm25.44-.96c-.639.072-1.448-1.951-1.92-.479 .639-.072 1.449,1.95 1.92.479zm12,2.4c-.988-.132-.451-1.788-1.439-1.92 .137.718.616,3.468 1.439,1.92zm-17.76,2.4c.081-1.202-.737-1.503-1.439-1.921-.083,1.203.737,1.503 1.439,1.921zm-6.24.96c.757-1.764-.949-3.47-1.92-1.92 2.173-.893.835,1.725 1.92,1.92zm16.8,2.4c1.469-.03 2.5-1.762 3.84-.479-.231-2.312 2.979-1.181 3.359-2.88-2.31,1.208-5.581,1.457-7.199,3.359zm-29.76.96c-3.004-.178-7.873-3.792-9.12-1.92 2.197-.478 6.276,3.118 9.12,1.92zm-4.8.96c-1.948-.292-3.317-1.162-4.8-1.92 .381,1.556 3.582,2.794 4.8,1.92zm28.32,0c.637.598 3.764-2.374 5.28-.96-.441-1.933-4.968-.363-5.28.96zm-16.32.96h4.8c-.666-1.094-3.341-.179-4.8-.479-1.887-.21-5.329-1.369-6.72-.48 1.856.703 4.773.346 6.72.959zm5.76,1.92c2.028-.531 6.25,1.131 6.72-.96-1.144.221-5.487,1.536-5.76-.479 2.167-1.39 5.107.333 6.24-1.44-2.973.386-7.432-.713-7.2,2.879zm-13.44-1.92c-1.187.29-4.265-1.227-3.36,0 1.253-.398 2.634,1.452 3.36,0z" fill="#fff" fill-rule="evenodd"/>
 <path d="m100.8,96c2.074-.622 4.857,2.173 7.2,2.88-.054.907-1.588.333-1.44,1.44 .533-2.631-3.828-2.753-5.76-4.32z" fill-rule="evenodd"/>
 <path d="m97.92,97.44c-.849-1.208 2.407.433 3.359.48-.915,1.495-2.083-.751-3.359-.48z" fill-rule="evenodd"/>
 <path d="m57.12,108c.68,3.48 3.137,5.183 5.28,7.2-2.218-4.982-5.418-8.982-7.68-13.92 2.75.339 4.095,4.105 5.28,6.24 1.336,2.407 1.984,5.437 4.32,6.72-1.689,1.671-3.943,2.776-6.24,3.84 .348-1.468-.828-1.412-.48-2.88 .666-1.533.293,1.877.96,1.92 .861.061 1.012-.588 1.92-.48 .027-2.267-1.676-2.804-2.4-4.32-.651.149-.398,1.202-.48,1.92-.966-4.314-4.095-6.465-6.24-9.6-1.478-.358-.922,1.317-2.4.96 2.131-1.712 2.797-2.614 3.36-2.88 3.406-1.611.121,1.174 0,.96 .897,1.585 1.893,3.209 4.8,4.32z" fill-rule="evenodd"/>
 <path d="m54.72,103.68c.48-.742 2.077,5.613 0,0z" fill-rule="evenodd"/>
 <path d="m112.8,105.6c.465-.665 4.605,2.986 5.76,4.8 1.132-.148.893-1.667 2.4-1.44-.166,1.274-1.261,1.62-2.4,1.92-1.514-2.166-3.724-3.636-5.76-5.28z" fill-rule="evenodd"/>
 <path d="m117.12,106.56c.47-1.591.949.536 1.44.48-.268,1.391-.749-.736-1.44-.48z" fill-rule="evenodd"/>
 <path d="m136.8,110.4c.467.013.372.587.479.96 .954-.799.61.043 1.92,0-.169.63-.845.755-.96,1.44-.559-.72-1.385-1.174-1.439-2.4z" fill-rule="evenodd"/>
 <path d="m122.4,111.84c.918-.886 1.962,2.175 2.88,2.88-.484,1.21-.83-1.675-1.92-1.44-1.291-.015-1.291,2.416 0,2.4-.417,1.418-.719-1.113-1.92-.479-5.255,2.211-8.027,7.875-12.479,11.04-1.256.893-3.082,1.166-4.32,1.92-7.085,4.312-12.242,11.062-19.68,14.88 2.982,4.927.077,9.988-5.28,10.56-.12,3.881.354,8.355-.48,11.521 15.527.485 23.593,19.308 12.48,29.28-2.883,2.586-6.656,2.517-10.56,4.319-.13.061-.714,1.449-.48,1.44-.83.032-.064-1.238-.48-1.44-1.499-.728-4.937-.183-7.68-1.439-3.281-1.503-5.557-4.262-7.2-7.681 .459-1.185.981,1.524 1.44,1.92 2.825-1.397 3.823,1.926 5.76,2.881-2.115.76-2.627-3.404-4.8-2.4-.344,1.478 3.234,3.155 4.8,4.32 .843-.438.878-1.683 1.44-2.4 1.147-.908-.641,2.199-.96,2.88 1.248.287 1.727-.192 1.44-1.439 2.445.855 6.754,1.521 9.601.479 .896.619-2.314,1.175-3.84.96 1.189,1.866 6.36.596 6.72-1.439 1.989.989 4.158-1.457 5.279-2.881-.209-.59-.614-.985-1.439-.96-1.223.604 1.237-1.277 1.92.48 .333-.388.747-1.314 0-1.44 1.778-.159 3.51-3.607 3.36-7.199 .189-1.15-2.187.266-1.44-1.44 1.003-.203 1.271.329 1.92.48 .597-3.069-2.215-1.044-3.36-.96-3.063.224-7.517.919-10.08,1.439-.881.719-1.196,2.003-2.399,2.4-1.255.135-2.065-.176-1.92-1.44-.992,1.248-1.018,3.462-.96,5.76-2.196-.338-.382-3.946-.48-5.279-2.338-1.671-4.646,2.234-7.2.479 1.531-1.483-.004-.811 0-2.88h1.92c-.078.562-.875.405-1.44.48 .843,1.631 5.466.813 6.72.479 .91-5.267-3.491-10.313.48-12.96 .385-1.665-.715-1.845-.48-3.36-2.71-.591-4.011,2.114-5.28,1.44 1.388-1.172 3.111-2.009 5.76-1.92 .685-2.156.442-8.204.479-12.48-8.138-1.942-4.036-16.537 4.8-11.52 13.81-7.791 23.763-19.438 37.44-27.36 .333-.387.747-1.314 0-1.44 .178.06 3.276.456 1.918-1.441zm-42.24,54.24c-.038,2.426-1.148,1.64-1.44,4.32 1.407-.128 1.783-.663 2.4,0-.043.756-1.224.375-.96,1.439 .754,3.804-2.425,6.204-.96,9.12 1.424-2.181 2.503.779 4.32.96 3.919-.972 9.758-1.731 12.48-2.4-1.148-4.932-4.156-8.003-7.681-10.56-1.353.428-1.669,4.383-2.88,3.36 .57-1.51 1.62-2.54 1.92-4.32-2.349-.689-4.69-1.389-7.199-1.919zm-1.92-15.84c9.226.706 2.474-11.619-1.92-5.28-.414,2.813.582,4.219 1.92,5.28zm1.44,33.6c.907.107 1.059-.541 1.92-.479-.059-1.222-.699-1.861-1.92-1.92-.616.629-.616,1.768 0,2.399zm-4.8,12.48c.023,2.057 2.88,1.279 4.8,1.439-.435-1.644-3.01-1.149-4.8-1.439z" fill-rule="evenodd"/>
 <path d="m146.88,112.32c1.063-.264.683.917 1.439.96 .143.858-1.861.03-1.439-.96z" fill="#fff" fill-rule="evenodd"/>
 <path d="m128.64,113.28c-.078.558.105.854.479.96-.147,1.015-1.667-.504-1.439-1.44 .63.576.755.188 1.439,0 .74.254.032.501-.479.48z" fill="#fff" fill-rule="evenodd"/>
 <path d="m128.16,119.52c-.76.04-1.83-.23-1.92.48-1.342-.617 1.513-.992.96-2.4 1.618,1.725 5.066,7.973 4.801,9.601-1.388-2.453-2.666-5.016-3.841-7.681z" fill-rule="evenodd"/>
 <path d="m36.48,118.08c.545.091.267.481 0,.479 2.153,4.727 7.043,6.718 12,8.641 .427-.213.858-.422.96-.96 .993.716-1.333,2.155-1.44,3.359-.562-.077-.405-.875-.48-1.439-5-1.083-8.441-2.858-13.44-4.8-.59.209-.986.614-.96,1.439-1.398-.673.851-1.653.48-2.88 2.028.532 3.591,1.529 5.76,1.92 .732-1.233-2.686-2.418-2.88-4.32-1.107-.146-.533,1.388-1.44,1.44-.941,1.023.895-2.311 1.44-2.879z" fill-rule="evenodd"/>
 <path d="m33.6,119.52c1.122-.934-1.373,1.468-1.44,2.4-.333.916-.747-.519 0-.479 .153-1.273-2.689.448-1.92-1.44 1.812.251 2.254.673 3.36-.481z" fill-rule="evenodd"/>
 <path d="m112.32,129.6c-.396,1.357.677,1.244.48,2.4-1.716-.844-1.72-3.401-3.36-4.32 2.502-1.107 4.792-3.343 7.2-4.8 2.326-1.408 5.11-3.273 7.68-2.88-4.282,3.078-9.601,5.119-13.439,8.64 5.02-2.02 9.192-4.887 13.439-7.68 .968.632 1.624,1.576 1.92,2.88-.448-.352-.727-.873-.96-1.439-4.631,2.087-8.357,5.082-12.96,7.199z" fill-rule="evenodd"/>
 <path d="m28.32,123.36c1.495.915-.75,2.084-.48,3.359-1.217-.638.704-2.129.48-3.359z" fill-rule="evenodd"/>
 <path d="m77.28,123.36c1.064-.265.684.916 1.44.96 .142.858-1.862.03-1.44-.96z" fill-rule="evenodd"/>
 <path d="m128.64,125.76c.767.674 1.227,1.654 1.439,2.88-1.162-.278-1.067-1.813-1.439-2.88z" fill-rule="evenodd"/>
 <path d="m83.52,128.64c.103-2.968 3.713.512 2.4,1.92-1.981-.452.721-2.608-2.4-1.92z" fill-rule="evenodd"/>
 <path d="m132.48,129.12c-.861-.062-1.013.588-1.92.479-.062.861.588,1.013.479,1.921-.373,1.098-1.008-1.497-.96-2.4 .895-.066 1.604-.315 1.921-.96 1.166.753 1.798,2.042 1.92,3.84-1.035-.405-.775-2.105-1.44-2.88z" fill-rule="evenodd"/>
 <path d="m76.8,128.64c-.013.467-.587.373-.96.48 .056,1.225.09,2.47 1.44,2.4 1.071-.071-.623-1.21 0-2.4 1.167,1.961.433,6.122 3.84,3.84-.046,1.233-1.874.687-1.92,1.92-1.721-1.479-3.279-3.121-4.32-5.28 .954-.006.61-1.31 1.92-.96z" fill-rule="evenodd"/>
 <path d="m140.64,176.64c1.385.215 1.135,2.065 2.399,2.4-.571.849-2.039-1.449-2.399-2.4z" fill-rule="evenodd"/>
 <path d="m142.08,172.8c1.107-.146.533,1.387 1.44,1.44-.148,1.015-1.667-.505-1.44-1.44z" fill-rule="evenodd"/>
 <path d="m147.84,164.64c.56-1.285 1.254,1.25 1.92,1.44-.956,1.681-1.095-1.409-1.92-1.44z" fill-rule="evenodd"/>
 <path d="m83.04,130.56c.778.502-1.058,2.431-2.879,1.92-.225-1.494 1.207-1.715 1.92-.959 .426-.213.857-.422.959-.961z" fill-rule="evenodd"/>
 <path d="m131.52,133.44c.077.562.875.404 1.44.479 .071.64-1.952,1.449-.48,1.92-1.272,2.233-1.65-5.547-.96-2.399z" fill-rule="evenodd"/>
 <path d="m133.92,132.479c.868,1.853 1.497,3.942 1.439,6.721-.849-1.87-1.141-4.299-1.439-6.721z" fill-rule="evenodd"/>
 <path d="m24.48,134.4c.659,1.929-1.425,7.948-.96,12.479-.176.816.375.906.96.96-.632,1.128-1.338,2.183-.96,4.32-1.291-3.561-.143-13.471.96-17.759z" fill-rule="evenodd"/>
 <path d="m132,136.8c1.623,1.125-.614,3.145 2.399,2.88-1.542,1.667-2.936-.876-2.399-2.88z" fill-rule="evenodd"/>
 <path d="m12.48,138.24c1.08,1.641 1.536,3.903 1.92,6.239-1.984-.735-1.151-4.288-1.92-6.239z" fill-rule="evenodd"/>
 <path d="m149.76,139.2c-.069,3.566-.103,14.059 1.92,18.24-3.045-4.639-2.882-11.471-1.92-18.24z" fill-rule="evenodd"/>
 <path d="m27.36,142.56c.467.014.373.588.48.961 2.449,1.928 11.946,3.053 14.88,0 1.041-.081.217,1.702.48,2.399-5.206.715-10.631,1.21-15.36,2.4-1.06-.061-.204-2.036-.48-2.88 .562.077.405.875.48,1.439 1.394-.526 3.407-.434 4.8-.96-1.298-1.581-5.866.107-5.28-3.359z" fill-rule="evenodd"/>
 <path d="m78.24,149.28c-1.161-1.265-1.161-3.536 0-4.801 1.468-.348 1.412.829 2.88.48 1.603,2.112.659,4.855-2.88,4.321zm.96-3.84c-.24.615-1.215,2.87-.48,2.88 .232-.854.512.208.96.479 .072-.888 1.625-.295 1.92-.96 .196-1.156-.877-1.043-.48-2.399h-1.92z" fill-rule="evenodd"/>
 <path d="m81.12,145.44c-.397,1.356.676,1.243.48,2.399-.295.665-1.848.072-1.92.96-.448-.271-.728-1.334-.96-.479-.735-.01.24-2.265.48-2.88h1.92z" fill="#fff" fill-rule="evenodd"/>
 <path d="m126.24,170.88c-3.705-3.654-9.195-5.524-13.92-8.16 3.476,3.726 9.022,5.378 13.44,8.16 .121,1.722-1.441,1.759-1.44,3.36-3.426-1.535-5.864-4.056-10.08-4.8 2.446,2.674 7.154,3.085 9.12,6.239-1.844-.284-4.505-1.438-7.2-2.88-2.489-1.332-6.317-4.995-7.68-3.359 .226-2.661 3.029-6.887 5.28-9.12 .066.305-.68.582-.48.96 1.869,3.541 9.962,4.612 12.96,7.68 .448-.352.728-.873.96-1.44 1.269-.694-1.014,2.192-.96,3.36zm-9.6-2.88c-1.955-1.089-3.962-4.317-5.76-2.4 5.512,1.528 8.583,5.497 13.92,7.2-1.244-2.654-5.429-3.279-8.16-4.8zm-3.36.96c-.113-1.806-1.968-1.872-3.359-2.4 .113,1.806 1.967,1.872 3.359,2.4z" fill-rule="evenodd"/>
 <path d="m124.8 172.8c-5.337-1.703-8.408-5.672-13.92-7.2 1.798-1.917 3.805 1.312 5.76 2.4 2.731 1.521 6.916 2.146 8.16 4.8z" fill="#fff" fill-rule="evenodd"/>
 <path d="m32.64,168.96c4.983-2.376 9.492-5.228 13.92-8.16-2.274,4.852-9.071,6.054-12.96,9.601 4.789-.04 9.534-6.751 14.4-6.721-.434,1.172-2.144,1.196-3.36,1.92-3.014,1.793-7.339,4.698-10.08,7.2 4.142-1.141 8.822-5.896 13.92-7.68 .413.387.285,1.314.96,1.439-2.769,4.751-7.605,7.435-11.04,11.521-.593,1.553 1.553.367.96,1.92-1.756-.937-4.029-3.469-3.36-5.28 .724.418-.132.719.48,1.92 4.883-2.477 7.408-7.312 12.48-9.6-4.724.398-9.362,5.036-13.44,7.68-1.49-1.39-2.447-3.313-2.88-5.76z" fill-rule="evenodd"/>
 <path d="m139.68,160.8c-1.413,12.742-9.837,24.081-18.72,32.16-5.475,4.978-11.836,9.547-20.16,12 5.798-2.842 11.349-5.931 16.319-9.6 .604-.119.484-.955 0-.96 .379-.48 1.679.179 2.4-.96 9.57-8.031 16.625-18.576 20.161-32.64z" fill="#fff" fill-rule="evenodd"/>
 <path d="m128.16,182.4c.276-1.004 1.19-1.37.96-2.881 .844,1.192.879.785 1.44-.479-.148-.826-1.667.623-1.44-1.44 .631.49 1.77.471 2.4.96-.792,1.608-1.419,3.381-3.36,3.84z" fill="#fff" fill-rule="evenodd"/>
 <path d="m27.36,161.28c1.285.635.813,3.026 1.92,3.84-.119.521-.954.325-.96.96 .016-.87-.64-2.933-.96-4.8z" fill-rule="evenodd"/>
 <path d="m20.16 162.72c2.245 4.155 3.5 9.301 5.76 13.44-2.312-2.172-4.64-8.477-5.76-13.44z" fill="#fff" fill-rule="evenodd"/>
 <path d="m25.44,162.72c.931.67.716,2.484 1.44,3.36-.594.871-1.401-2.086-1.44-3.36z" fill-rule="evenodd"/>
 <path d="m129.12,166.56c.979.302.135,2.426 1.92,1.92-.108.612-1.433.63-1.439,0-.428.213-.858.422-.96.961-1.004-.278.692-1.813.479-2.881z" fill-rule="evenodd"/>
 <path d="m14.4,168.479c.633-3.708-.352,2.061 0,0z" fill-rule="evenodd"/>
 <path d="m32.16,175.2c1.773,6.486 8.559,11.848 13.92,16.319-6.303-3.138-15.997-14.324-18.72-22.56-.114-.346-.853-3.241 0-.96 1.522,2.158 2.145,5.216 3.84,7.2 .119.605.954.486.96.001z" fill-rule="evenodd"/>
 <path d="m29.76,167.52c5.977,12.584 14.86,22.261 27.84,27.841-1.469,1.438-4.039-2.714-4.8.479-2.259.36.55-1.164.48-1.439-.177-.702-6.831-4.935-8.16-5.761-2.855-1.774-6.146-5.773-8.16-8.64-.558-.078-.854.106-.96.479-.687-3.913-5.449-7.583-6.24-12.959z" fill-rule="evenodd"/>
 <path d="m71.52,168.479c-.886.585-2.34,1.807 0,1.921-.617.822-.993,1.887-2.4,1.92-.225-1.024.686-.915 1.44-.96 .135-.775-.454-.827-.48-1.44-2.068.492-2.757,2.363-3.84,3.84-.376-1.988 2.837-4.515 5.28-5.281z" fill-rule="evenodd"/>
 <path d="m71.52,169.92c.434-1.3 1.074,1.098 1.92.96-.715,1.582-1.355-.817-1.92-.96z" fill-rule="evenodd"/>
 <path d="m130.08,170.4c1.025-1.185-.135,1.523-.479,1.92-1.026,1.185.134-1.524.479-1.92z" fill-rule="evenodd"/>
 <path d="m88.32,171.36c1.347-.529 4.099,1.647 4.32,3.84-1.688-1.032-2.491-2.949-4.32-3.84z" fill-rule="evenodd"/>
 <path d="m144.96,173.28c-.712-1.456 1.69,3.453 0,0z" fill-rule="evenodd"/>
 <path d="m143.04,177.12c.26-1.7-1.699-1.181-1.439-2.88 1.469.611 1.411,2.748 2.88,3.359-.27,1.391-.75-.736-1.441-.479-.135.775.454.826.48,1.439 .705.916-2.308-1.955-2.4-3.359 1.234.046.686,1.873 1.92,1.92z" fill-rule="evenodd"/>
 <path d="m66.72 175.2c-1.263 1.185-2.782-1.385 0 0z" fill-rule="evenodd"/>
 <path d="m144.96,175.2c-.72-1.009 2.454,3.435 0,0z" fill-rule="evenodd"/>
 <path d="m127.2,175.2c.886,1.229-1.933,2.848-1.92,4.8-1.089-1.434 1.563-3.219 1.92-4.8z" fill-rule="evenodd"/>
 <path d="m144,175.68c-.66-1.539 1.576,3.676 0,0z" fill-rule="evenodd"/>
 <path d="m60.48,177.6h-.96c-.656,2.405-2.849,4.644-4.32,7.2-1.121,1.947-1.647,6.531-4.8,5.28 3.28-3.44 5.115-8.325 7.68-12.48 .021-.82-.357-1.243-.96-1.439 1.493-.675 3.805,1.941 5.76,2.399-1.312,5.409-3.332,10.108-4.8,15.36-2.072-1.649 1.218-5.232 1.44-7.68-.431-1.298-1.159,1.013-1.44,1.439-.055-2.462 3.801-5.152 4.32-8.64-3.874,2.849-5.858,10.139-8.64,12.479-1.394-.377.062-2.571.479-3.359 1.554-2.93 5.112-6.834 6.241-10.559z" fill-rule="evenodd"/>
 <path d="m91.2,177.6c1.365-2.647 3.094-.917 0,0z" fill-rule="evenodd"/>
 <path d="m124.32,176.16c1.306.438-1.278.893-.479,2.399-3.308,2.282-5.201,6.014-8.16,8.641-1.308,1.16-4.084,1.276-3.84,3.84 1.229.572 5.332-2.212 4.319-3.84 .17-.673.846-.042.96.479 .95-.988 3.893-2.483 2.881-3.84 .99-.108 2.85-1.837 3.84-3.36-6.645,10.637-19.464,19.257-36,21.601 6.829-1.811 13.274-4.005 19.199-6.72 .397-1.357-.676-1.244-.479-2.4 1.243-.517 1.784-1.735 3.36-1.92 1.111-.746-1.865,1.7-2.881,1.92 .17.631.846.755.961,1.44 1.752-.327 2.34-1.819 3.84-2.4 .021-.821-.357-1.243-.96-1.44 4.448-4.831 9.861-8.699 13.439-14.4z" fill-rule="evenodd"/>
 <path d="m66.24,177.12c1.371-.797 2.694,1.996 0,0z" fill-rule="evenodd"/>
 <path d="m121.92,176.64c1.134.135-.551,1.282-.48,1.92-1.472-.471.552-1.281.48-1.92z" fill-rule="evenodd"/>
 <path d="m27.84,179.52c.016-1.287 4.433,8.006.96,2.881-.39-.577-.596-1.907-.96-2.881z" fill="#fff" fill-rule="evenodd"/>
 <path d="m141.6,179.52c-1.034-.926 1.771,1.259 1.92.96 1.591.623-1.872-.244 0,.961-.432.542-1.158-.115-1.44,1.439-.408.088-.452-.188-.479-.479-.701.169 2.197-1.463-.001-2.881z" fill-rule="evenodd"/>
 <path d="m106.08,191.52c-1.319-2.199-2.771-4.268-4.8-5.76-.078,1.519 1.276,1.604.96,3.36-.276-.007-2.942-6.741-3.84-9.601 1.265,1.401 3.044,3.098 4.8,5.28 1.625,2.02 3.036,5.239 4.32,5.76 .903.367 1.545-2.765 1.44,0-1.405-.124-1.475,1.087-2.88.961z" fill-rule="evenodd"/>
 <path d="m79.68,181.44c1.221.059 1.861.698 1.92,1.92-.861-.062-1.013.587-1.92.479-.616-.63-.616-1.769 0-2.399zm.96.96h-.96v.96h.96v-.96z" fill="#fff" fill-rule="evenodd"/>
 <path d="m24.48,181.92c1.804.472 1.109,3.409.48.48-.998.537-1.017.517-.48-.48z" fill="#fff" fill-rule="evenodd"/>
 <path d="m68.16,182.4c-.013.466-.588.372-.96.479 .077.562.875.405 1.44.48 .081,1.041-1.703.217-2.4.479 .417-.7.718-1.52 1.92-1.438z" fill-rule="evenodd"/>
 <path d="m144.48,184.32c1.807,1.377-1.276,1.885-.479,3.84-.387-.254-.779-.501-1.44-.48-.283-2.042 2.591-.928 1.919-3.36z" fill="#fff" fill-rule="evenodd"/>
 <path d="m65.76,187.68c1.034-1.157 1.933,1.879 2.4,2.88h-1.44c.911-.904.058-2.495-.96-2.88z" fill-rule="evenodd"/>
 <path d="m142.56,188.16c.545.091.267.481 0,.479-.101.821.818,1.243 0,1.44-.269.782-.349-.458-.96-1.44 .558.079.854-.105.96-.479z" fill="#fff" fill-rule="evenodd"/>
 <path d="m122.4,189.6c-.97,1.11-1.595,2.565-3.36,2.88 .296-.427.58-.858 0-.96 1.012.209 1.736-1.448 3.36-1.92z" fill="#fff" fill-rule="evenodd"/>
 <path d="m102.72,190.08c.988.132.451,1.788 1.439,1.92-.822,1.548-1.301-1.202-1.439-1.92z" fill-rule="evenodd"/>
 <path d="m117.6,191.04c.124.156-.508,3.629-2.4,3.36 .361-1.559 1.828-2.012 2.4-3.36z" fill="#fff" fill-rule="evenodd"/>
 <path d="m104.16,194.4c-.38,1.699-3.591.568-3.359,2.88-1.34-1.282-2.371.449-3.84.479 1.617-1.901 4.888-2.15 7.199-3.359z" fill-rule="evenodd"/>
 <path d="m114.72,194.4c-.078.558.105.854.479.96 .709,2.312-1.471.01-1.439,0-1.552.498-.174.974-1.92,1.439-.566.151-2.163,1.498-3.84,1.92 .406,1.407 1.545-.287 2.399,0-.736.763-2.133,2.131-3.36.96-.648,1.752-3.162,1.638-3.84,3.36-.906-.054-.333-1.587-1.439-1.44 .312-.814 1.104-.3.96.48 .41-.87 1.236-1.324 1.439-2.4 .428.213.858.422.96.96 .497-1.449.198-.614.96-.96 .773-.351 1.915-2.041 2.881-2.399 .5-.186 1.477.283 1.92,0 1.597-1.022 1.797-3.432 3.84-2.88z" fill="#fff" fill-rule="evenodd"/>
 <path d="m44.16,195.84c.973-.528 2.408-1.036 4.32,0-.535.964-3.713.551-4.32,0z" fill="#fff" fill-rule="evenodd"/>
 <path d="m58.08 196.8c1.248-1.872 6.116 1.742 9.12 1.92-2.844 1.198-6.923-2.398-9.12-1.92z" fill-rule="evenodd"/>
 <path d="m47.04,196.8c1.12.142 1.12,1.299 0,1.44-.237,1.517 2.382.178 1.92,1.92-1.313-.447-2.047-1.474-3.36-1.92 .042-.932 2.055,1.012 1.44-1.44z" fill="#fff" fill-rule="evenodd"/>
 <path d="m57.6,197.76c1.483.758 2.852,1.628 4.8,1.92-1.218.874-4.419-.364-4.8-1.92z" fill-rule="evenodd"/>
 <path d="m126.72,198.72c-.153,1.127-1.485,1.074-1.92,1.92-.924-.345 1.106-1.729 1.92-1.92z" fill-rule="evenodd"/>
 <path d="m87.36,199.68c-1.133,1.773-4.072.051-6.24,1.44 .273,2.016 4.617.7 5.76.479-.47,2.091-4.692.429-6.72.96-.232-3.591 4.227-2.492 7.2-2.879z" fill-rule="evenodd"/>
 <path d="m63.36,200.64c-.905-1.227 2.173.29 3.36,0-.726,1.452-2.107-.398-3.36,0z" fill-rule="evenodd"/>
 <path d="m34.56,203.52c.389.092.479.482.96.48-.091.389-.481.479-.48.96-.389-.091-.479-.481-.96-.48 .091-.389.482-.478.48-.96z" fill="#fff" fill-rule="evenodd"/>
 <path d="m36.48,204c.841.484 2.575.83 1.44,1.92-.545-.091-.267-.481 0-.479-.434-.745-1.767-.25-1.92,0-1.391-.27.736-.75.48-1.441z" fill="#fff" fill-rule="evenodd"/>
 <path d="m96.96,205.92c-5.108,2.571-12.348,3.014-20.161,2.88 5.735-1.618 14.005-.657 20.161-2.88z" fill="#fff" fill-rule="evenodd"/>
 <path d="m43.2,208.32c-.006.734-1.31,1.577-.96,0-.408-.089-.453.187-.479.479-1.016-.703.503-1.012 1.439-.479z" fill="#fff" fill-rule="evenodd"/>
 <path d="m53.28,212.64c-.632.969-1.576,1.624-2.88,1.92-.088-.408.188-.452.48-.479-.013-.467-.587-.373-.96-.48 1.001-.491 1.955-.039 3.36-.961z" fill="#fff" fill-rule="evenodd"/>
 <path d="m54.72,213.12c.882-1.174-.871,1.97-2.4,1.439 .332-.947 1.28-1.279 2.4-1.439z" fill="#fff" fill-rule="evenodd"/>
 <path d="m59.04,215.52c1.479.479-.535,1.298-.96,1.44-1.482-.482 1.378-.454.96-1.44z" fill="#fff" fill-rule="evenodd"/>
 <path d="m62.4,216c-.821.779-1.747,1.453-3.36,1.44 .639-.961 2.13-1.07 3.36-1.44z" fill="#fff" fill-rule="evenodd"/>
 <path d="m65.76,216c-.546.951-4.869,2.512-4.32,1.44 1.664-.255 2.556-1.284 4.32-1.44z" fill="#fff" fill-rule="evenodd"/>
 <path d="m65.76,217.44c.038-.045-.048-.465 0-.48 3.399-1.133-2.632,2.346 0,.48z" fill="#fff" fill-rule="evenodd"/>
 <path d="m92.16,217.44c-.87-1.186 2.087.753 3.36.479-.789,1.369-2.604-.23-3.36-.479z" fill="#fff" fill-rule="evenodd"/>
 <path d="m66.72,218.88c-.858.136-.985-.453-.48-.479 3.496-1.213 5.011-1.005.48.479z" fill="#fff" fill-rule="evenodd"/>
 <path d="m101.28,219.36c-.775.135-.826-.454-1.439-.48-1.157.639-3.597,2.46-4.801.48 2.19.556 5.367-2.366 6.24,0z" fill="#fff" fill-rule="evenodd"/>
 <path d="m104.64,27.36c1.107,1.453.169,4.951.479,7.2-.953-.8-.61.043-1.92,0v-6.24c.821-.101 1.243.818 1.44,0 .001-.32.001-.64.001-.96z" fill="#fff" fill-rule="evenodd"/>
 <path d="m87.36,168c-.3,1.78-1.35,2.811-1.92,4.32 1.211,1.022 1.527-2.933 2.88-3.36 3.524,2.557 6.532,5.628 7.681,10.56-2.723.669-8.562,1.429-12.48,2.4-1.816-.181-2.896-3.141-4.32-.96-1.465-2.916 1.714-5.316.96-9.12-.264-1.064.917-.684.96-1.439-.617-.663-.993-.128-2.4,0 .292-2.681 1.402-1.895 1.44-4.32 2.508.529 4.849,1.229 7.199,1.919zm5.28,7.2c-.222-2.192-2.974-4.369-4.32-3.84 1.829.891 2.632,2.808 4.32,3.84zm-1.44,2.4c3.094-.917 1.365-2.647 0,0zm1.92.48h.96v-.96h-.96v.96z" fill="#fff" fill-rule="evenodd"/>
</svg>
