<?xml version="1.0" encoding="UTF-8"?>
<svg viewBox="0 0 301.181095 191.338578" xmlns="http://www.w3.org/2000/svg">
 <path d="m146.54 94.395c-1.7778 0.0455-3.4807 0.23917-5.4884 0.92575-1.2874 0.47169-5.775 3.4596-2.9755 10.514 1.3939 3.5124 4.8098 6.101 8.001 7.8688h-12.432c-3.5168 0-6.3479 2.8312-6.3479 6.348v16.928h29.095v-19.308h6.348v19.308h29.095v-16.928c0-3.5168-2.831-6.348-6.3479-6.348h-12.432c3.2039-1.7678 6.6087-4.3603 8.0011-7.8688 2.7996-7.0543-1.6882-10.042-2.9755-10.514-3.5691-1.2215-6.2813-1.0752-9.8527-0.66121-2.5423 0.23062-5.9273 1.1188-8.6624 4.1658-2.7349-3.047-6.1201-3.9351-8.6623-4.1658-0.89299-0.10351-1.6984-0.25745-2.5128-0.26454-0.6107-8e-3 -1.2589-0.0149-1.8514 0zm1.058 2.9756c1.9068-0.0639 4.1002 0.39182 5.8851 2.3805 3.0808 3.4318 2.7728 9.9928 2.2483 13.952h-1.6532c-3.6782-1.6946-8.3003-4.484-9.9848-8.7284-2.1023-5.2975-0.83408-7.3259 1.7192-7.406 0.55158-0.10667 1.1499-0.17717 1.7854-0.19824zm22.945 0c0.9891-0.0718 1.95 0.0385 2.7774 0.19833 2.5532 0.0796 3.7554 2.3068 1.653 7.6043-1.6738 4.218-6.1981 6.8713-9.8524 8.5301h-1.7193c-0.52464-3.9604-0.83269-10.521 2.2483-13.952 1.4872-1.6572 3.2449-2.26 4.8931-2.3805zm-43.246 45.957v16.862c0 3.5166 2.8312 6.348 6.3479 6.348h22.747v-23.21h-29.095zm35.443 0v23.21h22.747c3.5169 0 6.3479-2.8313 6.3479-6.348v-16.862h-29.095z" fill="#f60"/>
 <path d="m131.49 15.701c-4.892 0-8.8302 3.9383-8.8302 8.8301v2.3179h79.085v-2.3179c0-4.8918-3.9383-8.8301-8.8302-8.8301h-61.424zm-8.8302 19.426v23.841c0 4.8919 3.9382 8.8302 8.8302 8.8302h61.424c4.8919 0 8.8302-3.9382 8.8302-8.8302v-23.841h-79.085zm6.1811 15.397h26.325v3.6976h-26.325v-3.6976zm0 5.6292h11.479v3.6976h-11.479v-3.6976zm14.846 0h11.479v3.6976h-11.479v-3.6976z" fill="#f60"/>
 <path d="m30.622 97.419c-0.99835 0-1.9743 0.15418-2.8738 0.44903l34.62 22.9 34.62-22.9c-0.89662-0.29485-1.8306-0.44903-2.8289-0.44903h-63.538zm-7.5437 3.9515c-1.0221 1.478-1.6166 3.2748-1.6166 5.2087v35.608c0 2.0782 0.72088 3.9864 1.886 5.523l29.187-26.852-29.456-19.488zm78.535 0-29.367 19.443 29.187 26.897c1.1563-1.5366 1.8411-3.4448 1.8411-5.523v-24.652h-0.0445v-8.5763h0.0445v-2.38c0-1.9431-0.63857-3.7267-1.6615-5.2087zm-31.252 20.655-7.9928 5.2985-7.9478-5.2536-29.367 27.391c1.5434 1.184 3.4711 1.886 5.5679 1.886h63.538c2.0968 0 4.0336-0.7019 5.5681-1.886l-29.367-27.436z" fill="#f60"/>
 <path d="m220.96 85.787c-4.8907 0-8.8518 3.1504-8.8518 7.0294v27.293c0 3.8793 3.9611 7.0294 8.8518 7.0294h38.949l5.652 14.13 6.7287-14.13h10.069c4.8906 0 8.8084-3.1501 8.8084-7.0294v-18.875h-0.0434v-6.5954h0.0434v-1.8224c0-3.879-3.9178-7.0294-8.8084-7.0294zm4.773 9.2857c2.5283 0 5.038 0.63941 7.4634 1.9092l-2.4299 4.7296c-1.3271-1.0295-2.6855-1.5187-4.0354-1.5187-0.65204 0-1.2208 0.14565-1.7356 0.47734-0.58342 0.37747-0.91125 0.88947-0.91125 1.5186 0 0.61772 0.4051 1.1592 1.1716 1.6055 0.34317 0.20595 1.3647 0.53799 3.0808 1.0413 2.1507 0.62919 3.6842 1.5349 4.5994 2.6903 0.78937 0.98372 1.1715 2.2305 1.1715 3.7751 0 3.9582-1.7292 6.5659-5.2069 7.7671-1.2127 0.42325-2.5096 0.60753-3.9052 0.60753-2.9286 0-5.6522-0.87378-8.1576-2.647l2.6034-4.9032c1.8305 1.6473 3.6302 2.4732 5.3806 2.4732 0.78925 0 1.4468-0.19787 1.9959-0.56398 0.64067-0.41177 0.95468-0.98056 0.95468-1.7356 0-0.68633-0.33215-1.2782-1.0414-1.7356-0.52617-0.34328-1.4-0.68692-2.6469-1.0416-1.51-0.44608-2.4749-0.73972-2.8638-0.91125-0.61772-0.26308-1.1274-0.55661-1.5621-0.91125-1.2469-1.0295-1.8658-2.6041-1.8658-4.6862 0-2.1734 0.61655-3.9939 1.9092-5.4238 1.5101-1.6816 3.5146-2.5167 6.0314-2.5167zm52.33 0c2.5282 0 4.9946 0.63941 7.4199 1.9092l-2.4299 4.7296c-1.3271-1.0295-2.6855-1.5187-4.0355-1.5187-0.65203 0-1.2208 0.14565-1.7356 0.47734-0.58342 0.37747-0.86781 0.88947-0.86781 1.5186 0 0.61772 0.36166 1.1592 1.1282 1.6055 0.34316 0.20595 1.4081 0.53799 3.1241 1.0413 2.1507 0.62919 3.6843 1.5349 4.5996 2.6903 0.78925 0.98372 1.1715 2.2305 1.1715 3.7751 0 3.9582-1.7293 6.5659-5.207 7.7671-1.2126 0.42325-2.553 0.60753-3.9486 0.60753-2.9286 0-5.6088-0.87378-8.1141-2.647l2.6034-4.9032c1.8303 1.6473 3.5868 2.4732 5.3372 2.4732 0.78936 0 1.4902-0.19787 2.0393-0.56398 0.64067-0.41177 0.95456-0.98056 0.95467-1.7356-1.1e-4 -0.68633-0.37559-1.2782-1.0849-1.7356-0.52617-0.34328-1.4-0.68692-2.6469-1.0416-1.51-0.44608-2.4749-0.73972-2.8638-0.91125-0.61772-0.26308-1.1273-0.55661-1.562-0.91125-1.247-1.0295-1.8658-2.6041-1.8658-4.6862 0-2.1734 0.65987-3.9939 1.9526-5.4238 1.51-1.6816 3.5146-2.5167 6.0313-2.5167zm-37.143 0.56415h6.0315l4.7296 12.497 5.0333-12.497h6.0748l3.5147 23.431h-6.0748l-1.7356-13.495-5.6843 13.495h-2.3865l-5.4239-13.495-1.996 13.495h-6.0314z" fill="#f60"/>
 <path d="m52.749 9.4008v41.527h59.529v-32.088h-0.0363c-0.53767-5.3264-5.028-9.4397-10.501-9.4397h-48.991zm-21.806 9.6592c-3.4085 0.0094-7.2299 0.25042-9.4762 1.5733-6.8256 4.0196-10.208 11.348-12.623 19.318-1.6976 5.6026-1.244 17.562-1.244 17.562v3.11c0 3.7592 3.0096 6.7688 6.7688 6.7688h5.8906c1.4533-5.7215 6.6321-9.9154 12.806-9.9154s11.35 4.1976 12.806 9.9154h37.832c1.4529-5.7215 6.6323-9.9154 12.806-9.9154 6.148 0 11.328 4.1568 12.806 9.8422h2.9637v-11.452h-64.102v-30.88c0-3.2212-2.5963-5.8175-5.8176-5.8175h-4.2073s-0.74944-0.03571-1.9392-0.03653c-1.3385-9.7e-4 -3.2236-0.07891-5.2687-0.07317zm3.2929 5.7443h3.7317c1.9525 0 3.5124 1.5966 3.5124 3.549v9.0372h-23.16c1.4584-4.8089 2.8646-8.7309 6.9883-11.159 2.1785-1.2829 6.764-1.4293 8.9275-1.4269zm-1.5367 36.222c-5.1991 0-9.4031 4.204-9.4031 9.4031s4.2039 9.4031 9.4031 9.4031 9.4032-4.204 9.4032-9.4031-4.2039-9.4031-9.4032-9.4031zm64.029 0c-5.1991 0-9.4031 4.204-9.4031 9.4031s4.2039 9.4031 9.4031 9.4031 9.4397-4.204 9.4397-9.4031-4.2405-9.4031-9.4397-9.4031zm-83.165 9.0372v0.03653h0.18288v-0.03653h-0.18288z" fill="#f60"/>
</svg>
